G04 DipTrace 2.4.0.2*
%INBottom.gbr*%
%MOMM*%
%ADD12C,0.025*%
%ADD13C,0.762*%
%ADD14C,0.254*%
%ADD17R,2.2X1.27*%
%ADD18C,1.5*%
%ADD19R,1.5X1.5*%
%ADD20C,1.524*%
%ADD21R,2.2X3.5*%
%ADD22O,2.2X3.5*%
%ADD24C,0.6*%
%ADD49C,0.157*%
%FSLAX53Y53*%
G04*
G71*
G90*
G75*
G01*
%LNBottom*%
%LPD*%
X6076Y65800D2*
D13*
X4287Y67589D1*
Y71921D1*
X2540Y73668D1*
Y86360D1*
Y98753D1*
X15559D2*
Y101360D1*
X15474D1*
X6195Y98753D2*
Y101241D1*
X6076Y101360D1*
X1076Y71360D2*
D14*
X953D1*
Y88900D1*
X4064Y91440D2*
Y93608D1*
X8573Y98118D1*
Y101357D1*
X8576Y101360D1*
X4445Y14384D2*
X8573Y18512D1*
Y32706D1*
X7462Y33817D1*
Y41597D1*
X8573Y42708D1*
Y51599D1*
X8097Y52075D1*
X5329D1*
X4064Y53340D1*
X14605Y14384D2*
X10479Y18510D1*
Y33659D1*
X9367Y34770D1*
Y40644D1*
X10479Y41756D1*
Y53340D1*
X10474Y71360D2*
Y88900D1*
X17941Y91440D2*
Y101327D1*
X17974Y101360D1*
X3334Y32230D2*
Y33341D1*
X4763Y34770D1*
Y36358D1*
X5239Y36834D1*
Y46895D1*
X6604Y48260D1*
X4445Y1684D2*
X4542D1*
X9208Y6351D1*
Y33023D1*
X8097Y34135D1*
Y41279D1*
X9208Y42391D1*
Y53504D1*
X8097Y54616D1*
X5328D1*
X4064Y55880D1*
X6076Y35800D2*
D13*
Y34495D1*
X4445Y32865D1*
Y29210D1*
X15474Y35800D2*
Y33732D1*
X14607Y32865D1*
Y29212D1*
X14605Y29210D1*
X4445D2*
Y24716D1*
X14605Y29210D2*
Y24716D1*
X4445Y12016D2*
X2591D1*
X1905Y12701D1*
Y23974D1*
X2647Y24716D1*
X4445D1*
X14605Y12016D2*
X16461D1*
X17147Y12701D1*
Y23974D1*
X16405Y24716D1*
X14605D1*
X6076Y35800D2*
Y45192D1*
X6604Y45720D1*
X15474Y35800D2*
Y63189D1*
X10474Y65800D2*
Y63287D1*
Y65800D2*
Y69699D1*
X15474Y71360D2*
Y86369D1*
X10474Y99864D2*
Y101360D1*
X15474Y86369D2*
Y96298D1*
X13971Y97800D1*
Y99864D1*
X14605Y1684D2*
D14*
X9844Y6445D1*
Y33341D1*
X8732Y34452D1*
Y40962D1*
X9844Y42073D1*
Y54933D1*
X8897Y55880D1*
X6604D1*
X10474Y35800D2*
X11272Y36598D1*
Y64142D1*
X11749Y64618D1*
Y81280D1*
X17974Y65800D2*
Y83795D1*
X17941Y83829D1*
X1076Y35800D2*
Y63630D1*
X2223Y64777D1*
Y72239D1*
X1588Y72874D1*
Y81280D1*
X8576Y65800D2*
Y76999D1*
X5398Y80177D1*
Y82486D1*
X4064Y83820D1*
X1945Y29210D2*
Y33698D1*
X2858Y34611D1*
Y49594D1*
X4064Y50800D1*
X12105Y29210D2*
Y50767D1*
X12066Y50805D1*
D13*
X2540Y86360D3*
Y98753D3*
X15559D3*
X6195D3*
D24*
X953Y88900D3*
X10479Y53340D3*
X10474Y88900D3*
X17941Y91440D3*
X3334Y32230D3*
D13*
X15474Y63189D3*
X10474Y63287D3*
Y69699D3*
X15474Y86369D3*
X10474Y99864D3*
X13971D3*
D24*
X11749Y81280D3*
X17941Y83829D3*
X1588Y81280D3*
X12066Y50805D3*
D17*
X4445Y14384D3*
Y22683D3*
Y24716D3*
X14605Y14384D3*
Y22683D3*
Y24716D3*
X4445Y1684D3*
Y9983D3*
Y12016D3*
X14605Y1684D3*
Y9983D3*
Y12016D3*
D18*
X4064Y81280D3*
X6604D3*
X4064Y83820D3*
X6604D3*
X4064Y86360D3*
X6604D3*
X4064Y88900D3*
X6604D3*
Y91440D3*
D19*
X4064D3*
D18*
Y45720D3*
X6604D3*
X4064Y48260D3*
X6604D3*
X4064Y50800D3*
X6604D3*
X4064Y53340D3*
X6604D3*
Y55880D3*
D19*
X4064D3*
D20*
X3576Y101360D3*
X6076D3*
X8576D3*
X1076D3*
Y71360D3*
X6076D3*
X12974Y101360D3*
X15474D3*
X17974D3*
X10474D3*
Y71360D3*
X15474D3*
X3576Y65800D3*
X6076D3*
X8576D3*
X1076D3*
Y35800D3*
X6076D3*
X12974Y65800D3*
X15474D3*
X17974D3*
X10474D3*
Y35800D3*
X15474D3*
D21*
X6945Y29210D3*
D22*
X4445D3*
X1945D3*
D21*
X17105D3*
D22*
X14605D3*
X12105D3*
X17166Y2515D2*
D12*
X17496D1*
X17056Y2489D2*
X17599D1*
X16963Y2464D2*
X17687D1*
X16888Y2438D2*
X17759D1*
X16828Y2413D2*
X17818D1*
X16775Y2388D2*
X17869D1*
X16730Y2362D2*
X17912D1*
X16693Y2337D2*
X17950D1*
X16662Y2311D2*
X17985D1*
X16634Y2286D2*
X18015D1*
X16608Y2261D2*
X17124D1*
X17191D2*
X17445D1*
X17546D2*
X18040D1*
X16583Y2235D2*
X17041D1*
X17191D2*
X17445D1*
X17618D2*
X18061D1*
X16561Y2210D2*
X16972D1*
X17191D2*
X17445D1*
X17682D2*
X18083D1*
X16545Y2184D2*
X16916D1*
X17191D2*
X17445D1*
X17737D2*
X18103D1*
X16533Y2159D2*
X16874D1*
X17191D2*
X17445D1*
X17781D2*
X18120D1*
X16519Y2134D2*
X16841D1*
X17191D2*
X17445D1*
X17814D2*
X18135D1*
X16504Y2108D2*
X16812D1*
X17191D2*
X17445D1*
X17838D2*
X18149D1*
X16489Y2083D2*
X16787D1*
X17191D2*
X17445D1*
X17859D2*
X18162D1*
X16476Y2057D2*
X16764D1*
X17191D2*
X17445D1*
X17880D2*
X18172D1*
X16465Y2032D2*
X16745D1*
X17191D2*
X17445D1*
X17900D2*
X18181D1*
X16455Y2007D2*
X16730D1*
X17191D2*
X17445D1*
X17917D2*
X18190D1*
X16446Y1981D2*
X16716D1*
X17191D2*
X17445D1*
X17932D2*
X18199D1*
X16438Y1956D2*
X16703D1*
X17191D2*
X17445D1*
X17946D2*
X18207D1*
X16433Y1930D2*
X16690D1*
X17191D2*
X17445D1*
X17958D2*
X18216D1*
X16427Y1905D2*
X16678D1*
X17191D2*
X17445D1*
X17969D2*
X18223D1*
X16420Y1880D2*
X16668D1*
X17191D2*
X17445D1*
X17978D2*
X18228D1*
X16413Y1854D2*
X16662D1*
X17191D2*
X17445D1*
X17987D2*
X18232D1*
X16408Y1829D2*
X16656D1*
X17191D2*
X17445D1*
X17995D2*
X18236D1*
X16406Y1803D2*
X16648D1*
X17191D2*
X17445D1*
X18000D2*
X18243D1*
X16404Y1778D2*
X16641D1*
X17191D2*
X17445D1*
X18002D2*
X18249D1*
X16404Y1753D2*
X16637D1*
X17191D2*
X17445D1*
X18003D2*
X18254D1*
X16404Y1727D2*
X16634D1*
X17191D2*
X17445D1*
X18004D2*
X18256D1*
X16404Y1702D2*
X16633D1*
X17191D2*
X17445D1*
X18004D2*
X18257D1*
X16404Y1676D2*
X16633D1*
X17191D2*
X17445D1*
X18004D2*
X18258D1*
X16404Y1651D2*
X16632D1*
X17191D2*
X17445D1*
X18004D2*
X18258D1*
X16404Y1626D2*
X16632D1*
X17191D2*
X17445D1*
X18004D2*
X18258D1*
X16404Y1600D2*
X16632D1*
X17191D2*
X17445D1*
X18004D2*
X18258D1*
X16404Y1575D2*
X16632D1*
X17191D2*
X17445D1*
X18004D2*
X18258D1*
X16404Y1549D2*
X16632D1*
X17191D2*
X17445D1*
X18004D2*
X18258D1*
X16404Y1524D2*
X16633D1*
X17191D2*
X17445D1*
X18004D2*
X18257D1*
X16404Y1499D2*
X16637D1*
X17191D2*
X17445D1*
X18004D2*
X18254D1*
X16404Y1473D2*
X16643D1*
X17191D2*
X17445D1*
X18003D2*
X18248D1*
X16405Y1448D2*
X16649D1*
X17191D2*
X17445D1*
X18000D2*
X18241D1*
X16408Y1422D2*
X16654D1*
X17191D2*
X17445D1*
X17994D2*
X18237D1*
X16414Y1397D2*
X16657D1*
X17191D2*
X17445D1*
X17987D2*
X18233D1*
X16421Y1372D2*
X16661D1*
X17191D2*
X17445D1*
X17982D2*
X18229D1*
X16426Y1346D2*
X16668D1*
X17191D2*
X17445D1*
X17976D2*
X18222D1*
X16432Y1321D2*
X16675D1*
X17191D2*
X17445D1*
X17969D2*
X18215D1*
X16439Y1295D2*
X16683D1*
X17191D2*
X17445D1*
X17961D2*
X18207D1*
X16447Y1270D2*
X16693D1*
X17191D2*
X17445D1*
X17953D2*
X18199D1*
X16455Y1245D2*
X16704D1*
X17191D2*
X17445D1*
X17943D2*
X18190D1*
X16464Y1219D2*
X16716D1*
X17191D2*
X17445D1*
X17929D2*
X18182D1*
X16475Y1194D2*
X16732D1*
X17191D2*
X17445D1*
X17910D2*
X18172D1*
X16487Y1168D2*
X16751D1*
X17191D2*
X17445D1*
X17891D2*
X18160D1*
X16500Y1143D2*
X16771D1*
X17191D2*
X17445D1*
X17871D2*
X18146D1*
X16516Y1118D2*
X16791D1*
X17191D2*
X17445D1*
X17853D2*
X18130D1*
X16535Y1092D2*
X16813D1*
X17191D2*
X17445D1*
X17835D2*
X18114D1*
X16554Y1067D2*
X16836D1*
X17191D2*
X17445D1*
X17817D2*
X18096D1*
X16572Y1041D2*
X16857D1*
X17191D2*
X17445D1*
X17796D2*
X18077D1*
X16590Y1016D2*
X16876D1*
X17191D2*
X17445D1*
X17774D2*
X18057D1*
X16611Y991D2*
X16896D1*
X17191D2*
X17445D1*
X17749D2*
X18038D1*
X16634Y965D2*
X16920D1*
X17191D2*
X17445D1*
X17723D2*
X18016D1*
X16660Y940D2*
X16950D1*
X17191D2*
X17445D1*
X17695D2*
X17988D1*
X16689Y914D2*
X16984D1*
X17191D2*
X17445D1*
X17664D2*
X17955D1*
X16724Y889D2*
X17019D1*
X17191D2*
X17445D1*
X17633D2*
X17916D1*
X16766Y864D2*
X17049D1*
X17191D2*
X17445D1*
X17607D2*
X17872D1*
X16378Y838D2*
X17073D1*
X17191D2*
X17445D1*
X17587D2*
X18258D1*
X16378Y813D2*
X17081D1*
X17191D2*
X17445D1*
X17579D2*
X18258D1*
X16378Y787D2*
X17086D1*
X17191D2*
X17445D1*
X17575D2*
X18258D1*
X16378Y762D2*
X17088D1*
X17191D2*
X17445D1*
X17573D2*
X18258D1*
X16378Y737D2*
X17089D1*
X17191D2*
X17445D1*
X17573D2*
X18258D1*
X16378Y711D2*
X17089D1*
X17191D2*
X17445D1*
X17572D2*
X18258D1*
X16378Y686D2*
X17090D1*
X17191D2*
X17445D1*
X17572D2*
X18258D1*
X16378Y660D2*
X17090D1*
X17191D2*
X17445D1*
X17572D2*
X18258D1*
X16378Y635D2*
X17090D1*
X17191D2*
X17445D1*
X17572D2*
X18258D1*
X17166Y2515D2*
X17056Y2489D1*
X16963Y2464D1*
X16888Y2438D1*
X16828Y2413D1*
X16775Y2388D1*
X16730Y2362D1*
X16693Y2337D1*
X16662Y2311D1*
X16634Y2286D1*
X16608Y2261D1*
X16583Y2235D1*
X16561Y2210D1*
X16545Y2184D1*
X16533Y2159D1*
X16519Y2134D1*
X16504Y2108D1*
X16489Y2083D1*
X16476Y2057D1*
X16465Y2032D1*
X16455Y2007D1*
X16446Y1981D1*
X16438Y1956D1*
X16433Y1930D1*
X16427Y1905D1*
X16420Y1880D1*
X16413Y1854D1*
X16408Y1829D1*
X16406Y1803D1*
X16404Y1778D1*
Y1753D1*
Y1727D1*
Y1702D1*
Y1676D1*
Y1651D1*
Y1626D1*
Y1600D1*
Y1575D1*
Y1549D1*
Y1524D1*
Y1499D1*
Y1473D1*
X16405Y1448D1*
X16408Y1422D1*
X16414Y1397D1*
X16421Y1372D1*
X16426Y1346D1*
X16432Y1321D1*
X16439Y1295D1*
X16447Y1270D1*
X16455Y1245D1*
X16464Y1219D1*
X16475Y1194D1*
X16487Y1168D1*
X16500Y1143D1*
X16516Y1118D1*
X16535Y1092D1*
X16554Y1067D1*
X16572Y1041D1*
X16590Y1016D1*
X16611Y991D1*
X16634Y965D1*
X16660Y940D1*
X16689Y914D1*
X16724Y889D1*
X16766Y864D1*
X16810Y838D1*
X17496Y2515D2*
X17599Y2489D1*
X17687Y2464D1*
X17759Y2438D1*
X17818Y2413D1*
X17869Y2388D1*
X17912Y2362D1*
X17950Y2337D1*
X17985Y2311D1*
X18015Y2286D1*
X18040Y2261D1*
X18061Y2235D1*
X18083Y2210D1*
X18103Y2184D1*
X18120Y2159D1*
X18135Y2134D1*
X18149Y2108D1*
X18162Y2083D1*
X18172Y2057D1*
X18181Y2032D1*
X18190Y2007D1*
X18199Y1981D1*
X18207Y1956D1*
X18216Y1930D1*
X18223Y1905D1*
X18228Y1880D1*
X18232Y1854D1*
X18236Y1829D1*
X18243Y1803D1*
X18249Y1778D1*
X18254Y1753D1*
X18256Y1727D1*
X18257Y1702D1*
X18258Y1676D1*
Y1651D1*
Y1626D1*
Y1600D1*
Y1575D1*
Y1549D1*
X18257Y1524D1*
X18254Y1499D1*
X18248Y1473D1*
X18241Y1448D1*
X18237Y1422D1*
X18233Y1397D1*
X18229Y1372D1*
X18222Y1346D1*
X18215Y1321D1*
X18207Y1295D1*
X18199Y1270D1*
X18190Y1245D1*
X18182Y1219D1*
X18172Y1194D1*
X18160Y1168D1*
X18146Y1143D1*
X18130Y1118D1*
X18114Y1092D1*
X18096Y1067D1*
X18077Y1041D1*
X18057Y1016D1*
X18038Y991D1*
X18016Y965D1*
X17988Y940D1*
X17955Y914D1*
X17916Y889D1*
X17872Y864D1*
X17826Y838D1*
X17217Y2286D2*
X17124Y2261D1*
X17041Y2235D1*
X16972Y2210D1*
X16916Y2184D1*
X16874Y2159D1*
X16841Y2134D1*
X16812Y2108D1*
X16787Y2083D1*
X16764Y2057D1*
X16745Y2032D1*
X16730Y2007D1*
X16716Y1981D1*
X16703Y1956D1*
X16690Y1930D1*
X16678Y1905D1*
X16668Y1880D1*
X16662Y1854D1*
X16656Y1829D1*
X16648Y1803D1*
X16641Y1778D1*
X16637Y1753D1*
X16634Y1727D1*
X16633Y1702D1*
Y1676D1*
X16632Y1651D1*
Y1626D1*
Y1600D1*
Y1575D1*
Y1549D1*
X16633Y1524D1*
X16637Y1499D1*
X16643Y1473D1*
X16649Y1448D1*
X16654Y1422D1*
X16657Y1397D1*
X16661Y1372D1*
X16668Y1346D1*
X16675Y1321D1*
X16683Y1295D1*
X16693Y1270D1*
X16704Y1245D1*
X16716Y1219D1*
X16732Y1194D1*
X16751Y1168D1*
X16771Y1143D1*
X16791Y1118D1*
X16813Y1092D1*
X16836Y1067D1*
X16857Y1041D1*
X16876Y1016D1*
X16896Y991D1*
X16920Y965D1*
X16950Y940D1*
X16984Y914D1*
X17019Y889D1*
X17049Y864D1*
X17073Y838D1*
X17081Y813D1*
X17086Y787D1*
X17088Y762D1*
X17089Y737D1*
Y711D1*
X17090Y686D1*
Y660D1*
Y635D1*
X17191Y2286D2*
Y2261D1*
Y2235D1*
Y2210D1*
Y2184D1*
Y2159D1*
Y2134D1*
Y2108D1*
Y2083D1*
Y2057D1*
Y2032D1*
Y2007D1*
Y1981D1*
Y1956D1*
Y1930D1*
Y1905D1*
Y1880D1*
Y1854D1*
Y1829D1*
Y1803D1*
Y1778D1*
Y1753D1*
Y1727D1*
Y1702D1*
Y1676D1*
Y1651D1*
Y1626D1*
Y1600D1*
Y1575D1*
Y1549D1*
Y1524D1*
Y1499D1*
Y1473D1*
Y1448D1*
Y1422D1*
Y1397D1*
Y1372D1*
Y1346D1*
Y1321D1*
Y1295D1*
Y1270D1*
Y1245D1*
Y1219D1*
Y1194D1*
Y1168D1*
Y1143D1*
Y1118D1*
Y1092D1*
Y1067D1*
Y1041D1*
Y1016D1*
Y991D1*
Y965D1*
Y940D1*
Y914D1*
Y889D1*
Y864D1*
Y838D1*
Y813D1*
Y787D1*
Y762D1*
Y737D1*
Y711D1*
Y686D1*
Y660D1*
Y635D1*
X17445Y2286D2*
Y2261D1*
Y2235D1*
Y2210D1*
Y2184D1*
Y2159D1*
Y2134D1*
Y2108D1*
Y2083D1*
Y2057D1*
Y2032D1*
Y2007D1*
Y1981D1*
Y1956D1*
Y1930D1*
Y1905D1*
Y1880D1*
Y1854D1*
Y1829D1*
Y1803D1*
Y1778D1*
Y1753D1*
Y1727D1*
Y1702D1*
Y1676D1*
Y1651D1*
Y1626D1*
Y1600D1*
Y1575D1*
Y1549D1*
Y1524D1*
Y1499D1*
Y1473D1*
Y1448D1*
Y1422D1*
Y1397D1*
Y1372D1*
Y1346D1*
Y1321D1*
Y1295D1*
Y1270D1*
Y1245D1*
Y1219D1*
Y1194D1*
Y1168D1*
Y1143D1*
Y1118D1*
Y1092D1*
Y1067D1*
Y1041D1*
Y1016D1*
Y991D1*
Y965D1*
Y940D1*
Y914D1*
Y889D1*
Y864D1*
Y838D1*
Y813D1*
Y787D1*
Y762D1*
Y737D1*
Y711D1*
Y686D1*
Y660D1*
Y635D1*
X17471Y2286D2*
X17546Y2261D1*
X17618Y2235D1*
X17682Y2210D1*
X17737Y2184D1*
X17781Y2159D1*
X17814Y2134D1*
X17838Y2108D1*
X17859Y2083D1*
X17880Y2057D1*
X17900Y2032D1*
X17917Y2007D1*
X17932Y1981D1*
X17946Y1956D1*
X17958Y1930D1*
X17969Y1905D1*
X17978Y1880D1*
X17987Y1854D1*
X17995Y1829D1*
X18000Y1803D1*
X18002Y1778D1*
X18003Y1753D1*
X18004Y1727D1*
Y1702D1*
Y1676D1*
Y1651D1*
Y1626D1*
Y1600D1*
Y1575D1*
Y1549D1*
Y1524D1*
Y1499D1*
X18003Y1473D1*
X18000Y1448D1*
X17994Y1422D1*
X17987Y1397D1*
X17982Y1372D1*
X17976Y1346D1*
X17969Y1321D1*
X17961Y1295D1*
X17953Y1270D1*
X17943Y1245D1*
X17929Y1219D1*
X17910Y1194D1*
X17891Y1168D1*
X17871Y1143D1*
X17853Y1118D1*
X17835Y1092D1*
X17817Y1067D1*
X17796Y1041D1*
X17774Y1016D1*
X17749Y991D1*
X17723Y965D1*
X17695Y940D1*
X17664Y914D1*
X17633Y889D1*
X17607Y864D1*
X17587Y838D1*
X17579Y813D1*
X17575Y787D1*
X17573Y762D1*
Y737D1*
X17572Y711D1*
Y686D1*
Y660D1*
Y635D1*
X16378Y838D2*
Y813D1*
Y787D1*
Y762D1*
Y737D1*
Y711D1*
Y686D1*
Y660D1*
Y635D1*
X18258Y838D2*
Y813D1*
Y787D1*
Y762D1*
Y737D1*
Y711D1*
Y686D1*
Y660D1*
Y635D1*
X1410Y1609D2*
D49*
Y2046D1*
X1459Y2192D1*
X1508Y2241D1*
X1604Y2289D1*
X1702D1*
X1798Y2241D1*
X1848Y2192D1*
X1896Y2046D1*
Y1609D1*
X875D1*
X1410Y1949D2*
X875Y2289D1*
X1264Y2603D2*
Y3186D1*
X1362D1*
X1459Y3138D1*
X1508Y3089D1*
X1556Y2992D1*
Y2846D1*
X1508Y2749D1*
X1410Y2651D1*
X1264Y2603D1*
X1167D1*
X1021Y2651D1*
X925Y2749D1*
X875Y2846D1*
Y2992D1*
X925Y3089D1*
X1021Y3186D1*
X1556Y3500D2*
X875Y3792D1*
X1556Y4082D1*
X1701Y5384D2*
X1750Y5481D1*
X1895Y5627D1*
X875D1*
X973Y5989D2*
X924Y5941D1*
X875Y5989D1*
X924Y6039D1*
X973Y5989D1*
X1701Y6353D2*
X1750Y6450D1*
X1895Y6596D1*
X875D1*
M02*
