M48
METRIC,0000.00
T01C0.3
T02C0.381
T03C0.5
T04C0.6
T05C0.9
T06C1.1
T07C1.65
T08C3.3
%
T01
X+000095Y+008890
X+000159Y+008128
X+001175Y+008128
X+001794Y+008383
X+001794Y+009144
X+001047Y+008890
X+001048Y+005334
X+001207Y+005081
X+000333Y+003223
T02
X+000254Y+008636
X+000254Y+009875
X+000620Y+009875
X+001047Y+009986
X+001397Y+009986
X+001556Y+009875
X+001547Y+008637
X+001047Y+006970
X+001047Y+006329
X+001547Y+006319
T03
X+000495Y+001438G85X+000395Y+001438
X+001511Y+001438G85X+001411Y+001438
X+001511Y+000168G85X+001411Y+000168
X+000495Y+000168G85X+000395Y+000168
T04
X+000490Y+002268G85X+000399Y+002268
X+000479Y+002472G85X+000410Y+002472
X+001496Y+002472G85X+001426Y+002472
X+001506Y+002268G85X+001415Y+002268
X+001496Y+001202G85X+001426Y+001202
X+001505Y+000998G85X+001416Y+000998
X+000489Y+000998G85X+000400Y+000998
X+000479Y+001202G85X+000410Y+001202
T05
X+000406Y+008128
X+000660Y+008128
X+000660Y+008382
X+000660Y+008636
X+000660Y+008890
X+000406Y+008890
X+000406Y+008636
X+000406Y+008382
X+000406Y+009144
X+000660Y+009144
X+000660Y+005588
X+000660Y+005334
X+000660Y+005080
X+000660Y+004826
X+000406Y+004826
X+000406Y+005080
X+000406Y+005334
X+000406Y+005588
X+000406Y+004572
X+000660Y+004572
T06
X+000358Y+010136
X+000608Y+010136
X+000858Y+010136
X+001047Y+010136
X+001297Y+010136
X+001547Y+010136
X+001797Y+010136
X+000108Y+010136
X+000108Y+007136
X+000608Y+007136
X+001047Y+007136
X+001547Y+007136
X+001547Y+006580
X+001297Y+006580
X+001047Y+006580
X+000858Y+006580
X+000608Y+006580
X+000358Y+006580
X+000108Y+006580
X+001797Y+006580
X+001547Y+003580
X+001047Y+003580
X+000608Y+003580
X+000108Y+003580
T07
X+000695Y+002921
X+000445Y+002921
X+000195Y+002921
X+001211Y+002921
X+001461Y+002921
X+001711Y+002921
T08
X+000953Y+010668
T00
M30
