G04 DipTrace 2.4.0.2*
%INTopSilk.gbr*%
%MOMM*%
%ADD10C,0.25*%
%ADD11C,0.152*%
%ADD48C,0.118*%
%ADD50C,0.196*%
%FSLAX53Y53*%
G04*
G71*
G90*
G75*
G01*
%LNTopSilk*%
%LPD*%
X381Y23800D2*
D10*
X8509D1*
Y13309D1*
X381D1*
Y23800D1*
X3181Y23954D2*
X5709D1*
X5715Y21843D2*
G02X3175Y21843I-1270J-2549D01*
G01*
X4445Y18669D2*
Y19938D1*
X5081Y19305D2*
X3809D1*
X3181Y25224D2*
Y23826D1*
X5709Y25224D2*
Y23826D1*
X10541Y23800D2*
X18669D1*
Y13309D1*
X10541D1*
Y23800D1*
X13341Y23954D2*
X15869D1*
X15875Y21843D2*
G02X13335Y21843I-1270J-2549D01*
G01*
X14605Y18669D2*
Y19938D1*
X15241Y19305D2*
X13969D1*
X13341Y25224D2*
Y23826D1*
X15869Y25224D2*
Y23826D1*
X381Y11100D2*
X8509D1*
Y609D1*
X381D1*
Y11100D1*
X3181Y11254D2*
X5709D1*
X5715Y9143D2*
G02X3175Y9143I-1270J-2549D01*
G01*
X4445Y5969D2*
Y7238D1*
X5081Y6605D2*
X3809D1*
X3181Y12524D2*
Y11126D1*
X5709Y12524D2*
Y11126D1*
X10541Y11100D2*
X18669D1*
Y609D1*
X10541D1*
Y11100D1*
X13341Y11254D2*
X15869D1*
X15875Y9143D2*
G02X13335Y9143I-1270J-2549D01*
G01*
X14605Y5969D2*
Y7238D1*
X15241Y6605D2*
X13969D1*
X13341Y12524D2*
Y11126D1*
X15869Y12524D2*
Y11126D1*
X326Y103860D2*
X9326D1*
Y68860D1*
X326D1*
Y103860D1*
X3425Y99859D2*
X6227D1*
Y72861D1*
X3425D1*
Y99859D1*
X9724Y103860D2*
X18724D1*
Y68860D1*
X9724D1*
Y103860D1*
X12823Y99859D2*
X15625D1*
Y72861D1*
X12823D1*
Y99859D1*
X326Y68300D2*
X9326D1*
Y33300D1*
X326D1*
Y68300D1*
X3425Y64299D2*
X6227D1*
Y37300D1*
X3425D1*
Y64299D1*
X9724Y68300D2*
X18724D1*
Y33300D1*
X9724D1*
Y68300D1*
X12823Y64299D2*
X15625D1*
Y37300D1*
X12823D1*
Y64299D1*
X8545Y31810D2*
X345D1*
Y26610D1*
X8545D1*
Y31810D1*
X6033Y31115D2*
D11*
G03X2698Y30956I-1561J-2318D01*
G01*
X6033Y27305D2*
G02X2698Y27464I-1561J2318D01*
G01*
X18705Y31810D2*
D10*
X10505D1*
Y26610D1*
X18705D1*
Y31810D1*
X16193Y31115D2*
D11*
G03X12858Y30956I-1561J-2318D01*
G01*
X16193Y27305D2*
G02X12858Y27464I-1561J2318D01*
G01*
X767Y24879D2*
D48*
Y24296D1*
X730Y24187D1*
X693Y24150D1*
X621Y24113D1*
X548D1*
X475Y24150D1*
X439Y24187D1*
X402Y24296D1*
Y24369D1*
X1002Y24732D2*
X1075Y24770D1*
X1185Y24878D1*
Y24113D1*
X17907Y24879D2*
Y24296D1*
X17871Y24187D1*
X17834Y24150D1*
X17762Y24113D1*
X17688D1*
X17616Y24150D1*
X17580Y24187D1*
X17543Y24296D1*
Y24369D1*
X18180Y24696D2*
Y24732D1*
X18216Y24806D1*
X18252Y24842D1*
X18325Y24878D1*
X18471D1*
X18544Y24842D1*
X18580Y24806D1*
X18617Y24732D1*
Y24660D1*
X18580Y24587D1*
X18507Y24478D1*
X18143Y24113D1*
X18653D1*
X762Y12179D2*
Y11596D1*
X725Y11487D1*
X688Y11450D1*
X616Y11413D1*
X543D1*
X470Y11450D1*
X434Y11487D1*
X397Y11596D1*
Y11669D1*
X1070Y12178D2*
X1470D1*
X1252Y11887D1*
X1362D1*
X1434Y11851D1*
X1470Y11814D1*
X1507Y11705D1*
Y11632D1*
X1470Y11523D1*
X1398Y11450D1*
X1288Y11413D1*
X1179D1*
X1070Y11450D1*
X1034Y11487D1*
X997Y11559D1*
X17889Y12179D2*
Y11596D1*
X17853Y11487D1*
X17816Y11450D1*
X17744Y11413D1*
X17670D1*
X17598Y11450D1*
X17562Y11487D1*
X17525Y11596D1*
Y11669D1*
X18489Y11413D2*
Y12178D1*
X18125Y11669D1*
X18671D1*
X393Y104611D2*
X720D1*
X830Y104648D1*
X867Y104684D1*
X903Y104757D1*
Y104830D1*
X867Y104903D1*
X830Y104940D1*
X720Y104976D1*
X393D1*
Y104210D1*
X648Y104611D2*
X903Y104210D1*
X1138Y104829D2*
X1212Y104866D1*
X1321Y104975D1*
Y104210D1*
X17406Y104611D2*
X17734D1*
X17843Y104648D1*
X17881Y104684D1*
X17917Y104757D1*
Y104830D1*
X17881Y104903D1*
X17843Y104940D1*
X17734Y104976D1*
X17406D1*
Y104210D1*
X17662Y104611D2*
X17917Y104210D1*
X18189Y104793D2*
Y104829D1*
X18225Y104903D1*
X18262Y104939D1*
X18335Y104975D1*
X18481D1*
X18553Y104939D1*
X18589Y104903D1*
X18626Y104829D1*
Y104757D1*
X18589Y104684D1*
X18517Y104575D1*
X18152Y104210D1*
X18662D1*
X388Y32694D2*
X715D1*
X825Y32731D1*
X862Y32767D1*
X898Y32839D1*
Y32913D1*
X862Y32985D1*
X825Y33022D1*
X715Y33058D1*
X388D1*
Y32293D1*
X643Y32694D2*
X898Y32293D1*
X1207Y33058D2*
X1607D1*
X1388Y32766D1*
X1498D1*
X1570Y32730D1*
X1607Y32694D1*
X1644Y32584D1*
Y32512D1*
X1607Y32402D1*
X1534Y32329D1*
X1425Y32293D1*
X1315D1*
X1207Y32329D1*
X1170Y32366D1*
X1133Y32438D1*
X17388Y32694D2*
X17716D1*
X17825Y32731D1*
X17862Y32767D1*
X17899Y32839D1*
Y32913D1*
X17862Y32985D1*
X17825Y33022D1*
X17716Y33058D1*
X17388D1*
Y32293D1*
X17643Y32694D2*
X17899Y32293D1*
X18499D2*
Y33058D1*
X18134Y32548D1*
X18681D1*
X992Y26148D2*
X920Y26222D1*
X810Y26258D1*
X665D1*
X555Y26222D1*
X482Y26148D1*
Y26076D1*
X519Y26003D1*
X555Y25966D1*
X628Y25930D1*
X847Y25857D1*
X920Y25821D1*
X956Y25784D1*
X992Y25711D1*
Y25602D1*
X920Y25529D1*
X810Y25492D1*
X665D1*
X555Y25529D1*
X482Y25602D1*
X1228Y26258D2*
X1410Y25492D1*
X1592Y26258D1*
X1774Y25492D1*
X1957Y26258D1*
X2192Y26111D2*
X2266Y26148D1*
X2375Y26257D1*
Y25492D1*
X17022Y26148D2*
X16949Y26222D1*
X16840Y26258D1*
X16694D1*
X16584Y26222D1*
X16511Y26148D1*
Y26076D1*
X16548Y26003D1*
X16584Y25966D1*
X16657Y25930D1*
X16876Y25857D1*
X16949Y25821D1*
X16985Y25784D1*
X17022Y25711D1*
Y25602D1*
X16949Y25529D1*
X16840Y25492D1*
X16694D1*
X16584Y25529D1*
X16511Y25602D1*
X17257Y26258D2*
X17440Y25492D1*
X17622Y26258D1*
X17804Y25492D1*
X17986Y26258D1*
X18259Y26075D2*
Y26111D1*
X18295Y26184D1*
X18331Y26221D1*
X18404Y26257D1*
X18550D1*
X18623Y26221D1*
X18659Y26184D1*
X18696Y26111D1*
Y26039D1*
X18659Y25965D1*
X18586Y25857D1*
X18222Y25492D1*
X18732D1*
X2968Y104208D2*
X2676Y104973D1*
X2385Y104208D1*
X2494Y104463D2*
X2859D1*
X3313Y104973D2*
Y104354D1*
X3349Y104245D1*
X3423Y104208D1*
X3495D1*
X3204Y104718D2*
X3459D1*
X3840Y104973D2*
Y104354D1*
X3876Y104245D1*
X3949Y104208D1*
X4022D1*
X3730Y104718D2*
X3986D1*
X4694D2*
Y104208D1*
Y104609D2*
X4622Y104682D1*
X4549Y104718D1*
X4440D1*
X4367Y104682D1*
X4294Y104609D1*
X4257Y104499D1*
Y104427D1*
X4294Y104317D1*
X4367Y104245D1*
X4440Y104208D1*
X4549D1*
X4622Y104245D1*
X4694Y104317D1*
X5368Y104609D2*
X5294Y104682D1*
X5221Y104718D1*
X5112D1*
X5039Y104682D1*
X4967Y104609D1*
X4930Y104499D1*
Y104427D1*
X4967Y104317D1*
X5039Y104245D1*
X5112Y104208D1*
X5221D1*
X5294Y104245D1*
X5368Y104317D1*
X5603Y104973D2*
Y104208D1*
X5968Y104718D2*
X5603Y104354D1*
X5749Y104499D2*
X6004Y104208D1*
X13212Y104990D2*
Y104225D1*
X13467D1*
X13577Y104262D1*
X13650Y104334D1*
X13686Y104408D1*
X13723Y104516D1*
Y104699D1*
X13686Y104808D1*
X13650Y104881D1*
X13577Y104954D1*
X13467Y104990D1*
X13212D1*
X13958Y104516D2*
X14395D1*
Y104589D1*
X14359Y104663D1*
X14323Y104699D1*
X14249Y104735D1*
X14140D1*
X14067Y104699D1*
X13994Y104626D1*
X13958Y104516D1*
Y104444D1*
X13994Y104334D1*
X14067Y104262D1*
X14140Y104225D1*
X14249D1*
X14323Y104262D1*
X14395Y104334D1*
X15068Y104626D2*
X14995Y104699D1*
X14922Y104735D1*
X14813D1*
X14740Y104699D1*
X14667Y104626D1*
X14630Y104516D1*
Y104444D1*
X14667Y104334D1*
X14740Y104262D1*
X14813Y104225D1*
X14922D1*
X14995Y104262D1*
X15068Y104334D1*
X15741Y104735D2*
Y104225D1*
Y104626D2*
X15668Y104699D1*
X15595Y104735D1*
X15486D1*
X15413Y104699D1*
X15341Y104626D1*
X15304Y104516D1*
Y104444D1*
X15341Y104334D1*
X15413Y104262D1*
X15486Y104225D1*
X15595D1*
X15668Y104262D1*
X15741Y104334D1*
X16013Y104735D2*
X16231Y104225D1*
X16159Y104079D1*
X16086Y104006D1*
X16013Y103970D1*
X15976D1*
X16450Y104735D2*
X16231Y104225D1*
X3238Y32934D2*
X3165Y33007D1*
X3056Y33043D1*
X2910D1*
X2801Y33007D1*
X2727Y32934D1*
Y32862D1*
X2764Y32788D1*
X2801Y32752D1*
X2873Y32716D1*
X3092Y32643D1*
X3165Y32606D1*
X3202Y32569D1*
X3238Y32497D1*
Y32387D1*
X3165Y32315D1*
X3056Y32278D1*
X2910D1*
X2801Y32315D1*
X2727Y32387D1*
X3473Y32788D2*
Y32424D1*
X3509Y32315D1*
X3583Y32278D1*
X3692D1*
X3765Y32315D1*
X3874Y32424D1*
Y32788D2*
Y32278D1*
X4510Y32679D2*
X4474Y32752D1*
X4365Y32788D1*
X4255D1*
X4146Y32752D1*
X4109Y32679D1*
X4146Y32606D1*
X4219Y32569D1*
X4401Y32533D1*
X4474Y32497D1*
X4510Y32424D1*
Y32387D1*
X4474Y32315D1*
X4365Y32278D1*
X4255D1*
X4146Y32315D1*
X4109Y32387D1*
X4855Y33043D2*
Y32424D1*
X4891Y32315D1*
X4965Y32278D1*
X5037D1*
X4746Y32788D2*
X5001D1*
X5709D2*
Y32278D1*
Y32679D2*
X5637Y32752D1*
X5564Y32788D1*
X5455D1*
X5382Y32752D1*
X5309Y32679D1*
X5272Y32569D1*
Y32497D1*
X5309Y32387D1*
X5382Y32315D1*
X5455Y32278D1*
X5564D1*
X5637Y32315D1*
X5709Y32387D1*
X5945Y33043D2*
X5981Y33007D1*
X6018Y33043D1*
X5981Y33081D1*
X5945Y33043D1*
X5981Y32788D2*
Y32278D1*
X6253Y32788D2*
Y32278D1*
Y32643D2*
X6363Y32752D1*
X6436Y32788D1*
X6545D1*
X6618Y32752D1*
X6654Y32643D1*
Y32278D1*
X12024Y32692D2*
X12352D1*
X12462Y32729D1*
X12499Y32765D1*
X12535Y32838D1*
Y32911D1*
X12499Y32984D1*
X12462Y33021D1*
X12352Y33057D1*
X12024D1*
Y32291D1*
X12280Y32692D2*
X12535Y32291D1*
X12770Y32583D2*
X13207D1*
Y32656D1*
X13171Y32729D1*
X13135Y32765D1*
X13062Y32802D1*
X12952D1*
X12880Y32765D1*
X12806Y32692D1*
X12770Y32583D1*
Y32510D1*
X12806Y32401D1*
X12880Y32328D1*
X12952Y32291D1*
X13062D1*
X13135Y32328D1*
X13207Y32401D1*
X13443Y33057D2*
Y32291D1*
X13678Y32583D2*
X14115D1*
Y32656D1*
X14079Y32729D1*
X14043Y32765D1*
X13969Y32802D1*
X13860D1*
X13787Y32765D1*
X13714Y32692D1*
X13678Y32583D1*
Y32510D1*
X13714Y32401D1*
X13787Y32328D1*
X13860Y32291D1*
X13969D1*
X14043Y32328D1*
X14115Y32401D1*
X14787Y32802D2*
Y32291D1*
Y32692D2*
X14715Y32765D1*
X14642Y32802D1*
X14533D1*
X14460Y32765D1*
X14387Y32692D1*
X14350Y32583D1*
Y32510D1*
X14387Y32401D1*
X14460Y32328D1*
X14533Y32291D1*
X14642D1*
X14715Y32328D1*
X14787Y32401D1*
X15424Y32692D2*
X15387Y32765D1*
X15278Y32802D1*
X15168D1*
X15059Y32765D1*
X15023Y32692D1*
X15059Y32620D1*
X15132Y32583D1*
X15314Y32546D1*
X15387Y32510D1*
X15424Y32437D1*
Y32401D1*
X15387Y32328D1*
X15278Y32291D1*
X15168D1*
X15059Y32328D1*
X15023Y32401D1*
X15659Y32583D2*
X16096D1*
Y32656D1*
X16060Y32729D1*
X16024Y32765D1*
X15950Y32802D1*
X15841D1*
X15768Y32765D1*
X15695Y32692D1*
X15659Y32583D1*
Y32510D1*
X15695Y32401D1*
X15768Y32328D1*
X15841Y32291D1*
X15950D1*
X16024Y32328D1*
X16096Y32401D1*
X3992Y25493D2*
X3700Y26258D1*
X3409Y25493D1*
X3518Y25748D2*
X3883D1*
X4228Y26258D2*
Y25493D1*
X4483D1*
X4592Y25530D1*
X4666Y25602D1*
X4702Y25676D1*
X4738Y25784D1*
Y25967D1*
X4702Y26076D1*
X4666Y26149D1*
X4592Y26222D1*
X4483Y26258D1*
X4228D1*
X5484Y26149D2*
X5412Y26222D1*
X5302Y26258D1*
X5156D1*
X5047Y26222D1*
X4974Y26149D1*
Y26076D1*
X5011Y26003D1*
X5047Y25967D1*
X5119Y25931D1*
X5338Y25857D1*
X5412Y25821D1*
X5448Y25784D1*
X5484Y25712D1*
Y25602D1*
X5412Y25530D1*
X5302Y25493D1*
X5156D1*
X5047Y25530D1*
X4974Y25602D1*
X5719Y25894D2*
X6047D1*
X6156Y25931D1*
X6193Y25967D1*
X6230Y26039D1*
Y26113D1*
X6193Y26185D1*
X6156Y26222D1*
X6047Y26258D1*
X5719D1*
Y25493D1*
X5974Y25894D2*
X6230Y25493D1*
X6465D2*
X6975Y26258D1*
X7794Y25493D2*
X7502Y26258D1*
X7211Y25493D1*
X7320Y25748D2*
X7685D1*
X8030Y25894D2*
X8357D1*
X8467Y25931D1*
X8504Y25967D1*
X8540Y26039D1*
Y26113D1*
X8504Y26185D1*
X8467Y26222D1*
X8357Y26258D1*
X8030D1*
Y25493D1*
X8285Y25894D2*
X8540Y25493D1*
X11027Y26258D2*
X10553D1*
Y25493D1*
X11027D1*
X10553Y25894D2*
X10845D1*
X11262Y26003D2*
X11663Y25493D1*
Y26003D2*
X11262Y25493D1*
X11898Y26003D2*
Y25238D1*
Y25894D2*
X11971Y25966D1*
X12044Y26003D1*
X12153D1*
X12227Y25966D1*
X12299Y25894D1*
X12336Y25784D1*
Y25711D1*
X12299Y25602D1*
X12227Y25529D1*
X12153Y25493D1*
X12044D1*
X11971Y25529D1*
X11898Y25602D1*
X12571Y25493D2*
X13082Y26258D1*
X13317D2*
Y25493D1*
X13754D1*
X13990Y26258D2*
X14026Y26222D1*
X14063Y26258D1*
X14026Y26295D1*
X13990Y26258D1*
X14026Y26003D2*
Y25493D1*
X14298Y26003D2*
Y25493D1*
Y25857D2*
X14408Y25967D1*
X14481Y26003D1*
X14590D1*
X14663Y25967D1*
X14699Y25857D1*
Y25493D1*
X6742Y24106D2*
X6449Y24872D1*
X6158Y24106D1*
X6268Y24361D2*
X6632D1*
X6977Y24872D2*
Y24106D1*
X7232D1*
X7342Y24143D1*
X7415Y24215D1*
X7451Y24289D1*
X7487Y24397D1*
Y24580D1*
X7451Y24690D1*
X7415Y24762D1*
X7342Y24835D1*
X7232Y24872D1*
X6977D1*
X8233Y24762D2*
X8161Y24835D1*
X8051Y24872D1*
X7906D1*
X7796Y24835D1*
X7723Y24762D1*
Y24690D1*
X7760Y24616D1*
X7796Y24580D1*
X7868Y24544D1*
X8087Y24471D1*
X8161Y24434D1*
X8197Y24397D1*
X8233Y24325D1*
Y24215D1*
X8161Y24143D1*
X8051Y24106D1*
X7906D1*
X7796Y24143D1*
X7723Y24215D1*
X8469Y24507D2*
X8796D1*
X8906Y24544D1*
X8943Y24580D1*
X8979Y24653D1*
Y24726D1*
X8943Y24798D1*
X8906Y24835D1*
X8796Y24872D1*
X8469D1*
Y24106D1*
X8724Y24507D2*
X8979Y24106D1*
X10603Y24507D2*
X10931D1*
X11041Y24544D1*
X11078Y24580D1*
X11114Y24653D1*
Y24726D1*
X11078Y24798D1*
X11041Y24835D1*
X10931Y24872D1*
X10603D1*
Y24106D1*
X10859Y24507D2*
X11114Y24106D1*
X11349Y24397D2*
X11786D1*
Y24471D1*
X11750Y24544D1*
X11714Y24580D1*
X11641Y24616D1*
X11531D1*
X11459Y24580D1*
X11385Y24507D1*
X11349Y24397D1*
Y24325D1*
X11385Y24215D1*
X11459Y24143D1*
X11531Y24106D1*
X11641D1*
X11714Y24143D1*
X11786Y24215D1*
X12022Y24872D2*
Y24106D1*
X6705Y11988D2*
X6668Y12061D1*
X6595Y12134D1*
X6523Y12170D1*
X6377D1*
X6304Y12134D1*
X6231Y12061D1*
X6194Y11988D1*
X6158Y11879D1*
Y11696D1*
X6194Y11587D1*
X6231Y11514D1*
X6304Y11442D1*
X6377Y11405D1*
X6523D1*
X6595Y11442D1*
X6668Y11514D1*
X6705Y11587D1*
Y11696D1*
X6523D1*
X7377Y11915D2*
Y11405D1*
Y11806D2*
X7305Y11879D1*
X7231Y11915D1*
X7123D1*
X7049Y11879D1*
X6977Y11806D1*
X6940Y11696D1*
Y11624D1*
X6977Y11514D1*
X7049Y11442D1*
X7123Y11405D1*
X7231D1*
X7305Y11442D1*
X7377Y11514D1*
X7722Y12170D2*
Y11550D1*
X7758Y11442D1*
X7831Y11405D1*
X7904D1*
X7612Y11915D2*
X7868D1*
X8139Y11696D2*
X8576D1*
Y11769D1*
X8540Y11843D1*
X8504Y11879D1*
X8431Y11915D1*
X8321D1*
X8249Y11879D1*
X8175Y11806D1*
X8139Y11696D1*
Y11624D1*
X8175Y11514D1*
X8249Y11442D1*
X8321Y11405D1*
X8431D1*
X8504Y11442D1*
X8576Y11514D1*
X10822Y12170D2*
X10749Y12134D1*
X10677Y12061D1*
X10640Y11988D1*
X10603Y11879D1*
Y11696D1*
X10640Y11587D1*
X10677Y11514D1*
X10749Y11442D1*
X10822Y11405D1*
X10968D1*
X11041Y11442D1*
X11114Y11514D1*
X11150Y11587D1*
X11186Y11696D1*
Y11879D1*
X11150Y11988D1*
X11114Y12061D1*
X11041Y12134D1*
X10968Y12170D1*
X10822D1*
X11422Y11915D2*
Y11550D1*
X11458Y11442D1*
X11531Y11405D1*
X11641D1*
X11713Y11442D1*
X11823Y11550D1*
Y11915D2*
Y11405D1*
X12167Y12170D2*
Y11550D1*
X12204Y11442D1*
X12277Y11405D1*
X12349D1*
X12058Y11915D2*
X12313D1*
X2304Y107403D2*
D50*
X1817Y108679D1*
X1331Y107403D1*
X1513Y107829D2*
X2121D1*
X2696Y108679D2*
Y107403D1*
X3121D1*
X3304Y107465D1*
X3426Y107586D1*
X3486Y107708D1*
X3547Y107889D1*
Y108194D1*
X3486Y108376D1*
X3426Y108497D1*
X3304Y108619D1*
X3121Y108679D1*
X2696D1*
X4790Y108497D2*
X4669Y108619D1*
X4486Y108679D1*
X4243D1*
X4061Y108619D1*
X3939Y108497D1*
Y108376D1*
X4001Y108254D1*
X4061Y108194D1*
X4182Y108133D1*
X4547Y108011D1*
X4669Y107951D1*
X4729Y107889D1*
X4790Y107768D1*
Y107586D1*
X4669Y107465D1*
X4486Y107403D1*
X4243D1*
X4061Y107465D1*
X3939Y107586D1*
X5182Y108071D2*
X5728D1*
X5910Y108133D1*
X5972Y108194D1*
X6032Y108314D1*
Y108436D1*
X5972Y108557D1*
X5910Y108619D1*
X5728Y108679D1*
X5182D1*
Y107403D1*
X5607Y108071D2*
X6032Y107403D1*
X2401Y106788D2*
X2340Y106909D1*
X2218Y107031D1*
X2098Y107092D1*
X1855D1*
X1733Y107031D1*
X1612Y106909D1*
X1550Y106788D1*
X1490Y106606D1*
Y106301D1*
X1550Y106120D1*
X1612Y105998D1*
X1733Y105877D1*
X1855Y105815D1*
X2098D1*
X2218Y105877D1*
X2340Y105998D1*
X2401Y106120D1*
X3644Y107092D2*
Y105815D1*
X2793Y107092D1*
Y105815D1*
X4461Y107092D2*
Y105815D1*
X4036Y107092D2*
X4887D1*
X5279D2*
Y105815D1*
X6007D1*
X13873Y107217D2*
X14421D1*
X14602Y107278D1*
X14664Y107339D1*
X14724Y107460D1*
Y107643D1*
X14664Y107763D1*
X14602Y107825D1*
X14421Y107885D1*
X13873D1*
Y106609D1*
X15116Y107641D2*
X15238Y107703D1*
X15421Y107884D1*
Y106609D1*
X16724Y107582D2*
X16664Y107703D1*
X16542Y107825D1*
X16421Y107885D1*
X16178D1*
X16056Y107825D1*
X15935Y107703D1*
X15873Y107582D1*
X15813Y107400D1*
Y107095D1*
X15873Y106914D1*
X15935Y106792D1*
X16056Y106671D1*
X16178Y106609D1*
X16421D1*
X16542Y106671D1*
X16664Y106792D1*
X16724Y106914D1*
M02*
