M48
METRIC,0000.00
T01C0.3
T02C0.381
T03C0.5
T04C0.7
T05C0.737
T06C0.75
T07C0.9
T08C0.965
%
T01
X+001556Y+006224
X+001889Y+006605
X+002127Y+006462
X+001604Y+007113
X+001111Y+007668
X+001238Y+007986
X+001238Y+008129
X+001175Y+008382
X+001238Y+008494
X+001080Y+008510
X+001270Y+008907
X+001207Y+009256
X+001270Y+009399
X+001143Y+009542
X+001445Y+010225
X+001731Y+010383
X+001810Y+010479
X+001873Y+010352
X+001937Y+009859
X+002334Y+009796
X+001937Y+009145
X+001794Y+008383
X+002397Y+008256
X+002461Y+007621
X+000905Y+007986
X+000572Y+008002
X+000635Y+007780
X+000302Y+007748
X+000429Y+007367
X+000762Y+006748
X+000127Y+006351
X+000762Y+005986
X+001032Y+005954
X+000508Y+005701
X+000746Y+005208
X+001080Y+004842
X+000889Y+004715
X+000730Y+004350
X+000508Y+004350
X+000159Y+004699
X+000111Y+005081
X+000080Y+005334
X+000841Y+003731
X+001191Y+003731
X+001350Y+003334
X+001905Y+002715
X+002366Y+002000
X+002429Y+001905
X+002461Y+000667
X+000841Y+002000
X+000540Y+001905
X+001794Y+004271
X+001842Y+004398
X+001937Y+004779
X+002096Y+004954
X+000127Y+008748
X+000079Y+010383
T02
X+000794Y+000762
X+000635Y+000873
X+000409Y+000873
X+000381Y+000762
X+002048Y+002714
X+001699Y+002968
X+002048Y+003228
X+001699Y+003478
X+001810Y+003826
X+002048Y+004022
X+001003Y+003477
X+000841Y+003477
X+000239Y+003826
X+001699Y+005416
X+002000Y+005550
X+002000Y+005843
X+001699Y+007372
X+002032Y+007621
X+002032Y+007879
X+001699Y+007877
X+000810Y+007526
X+000524Y+007526
X+000206Y+007875
X+000810Y+008637
X+000810Y+008843
X+001032Y+008843
X+001445Y+010002
X+002032Y+009891
X+002397Y+009891
X+002461Y+010002
X+000996Y+010701
T03
X+000409Y+001191
X+000607Y+001191
X+000445Y+007668
X+000933Y+007668
T04
X+000381Y+000460
X+000508Y+000460
X+000635Y+000460
T05
X+000239Y+010701
X+000540Y+010701
X+000841Y+010701
X+001143Y+010701
X+001445Y+010701
X+001746Y+010701
X+001746Y+009685
X+001445Y+009685
X+001143Y+009685
X+000841Y+009685
X+000540Y+009685
X+000239Y+009685
X+000239Y+006859
X+000541Y+006859
X+000841Y+006859
X+001143Y+006859
X+001143Y+005843
X+000841Y+005843
X+000541Y+005843
X+000239Y+005843
X+000239Y+002682
X+000540Y+002682
X+000841Y+002682
X+001143Y+002682
X+001143Y+001666
X+000841Y+001666
X+000540Y+001666
X+000239Y+001666
T06
X+000524Y+007208
X+000270Y+007208
X+000841Y+007208
X+001095Y+007208
X+001031Y+001318
X+001031Y+001064
X+001031Y+000667
X+001031Y+000413
T07
X+001031Y+008131
X+000635Y+008128
X+000381Y+008128
X+000381Y+008382
X+000381Y+008636
X+000381Y+008890
X+000381Y+009144
X+000635Y+009144
X+000635Y+008890
X+000635Y+008636
X+000635Y+008382
X+001462Y+008383
X+001462Y+008129
X+001462Y+007875
X+001462Y+007621
X+001462Y+007367
X+001462Y+007113
X+001462Y+006859
X+001462Y+006605
X+001462Y+006351
X+001462Y+006097
X+001462Y+005541
X+001462Y+005287
X+001462Y+005033
X+001462Y+004779
X+001462Y+004525
X+001462Y+004271
X+001462Y+004017
X+001143Y+004106
X+000841Y+004106
X+000541Y+004106
X+000239Y+004106
X+000381Y+004572
X+000635Y+004572
X+000873Y+004572
X+001175Y+004572
X+000635Y+004826
X+000635Y+005080
X+000635Y+005334
X+000635Y+005588
X+000873Y+005582
X+001175Y+005582
X+000381Y+005588
X+000381Y+005334
X+000381Y+005080
X+000381Y+004826
X+001461Y+003477
X+001461Y+003223
X+001461Y+002969
X+001461Y+002715
X+001143Y+003096
X+000841Y+003096
X+000541Y+003096
X+000239Y+003096
X+002223Y+002969
X+002223Y+002715
X+002223Y+003223
X+002223Y+003477
X+002224Y+004017
X+002224Y+004271
X+002224Y+004525
X+002224Y+004779
X+002224Y+005033
X+002224Y+005287
X+002224Y+005541
X+002224Y+006097
X+002224Y+006351
X+002224Y+006605
X+002224Y+006859
X+002224Y+007113
X+002224Y+007367
X+002224Y+007621
X+002224Y+007875
X+002224Y+008129
X+002224Y+008383
X+002224Y+008637
X+002224Y+008891
X+002224Y+009145
X+002224Y+009399
X+001462Y+009399
X+001462Y+009145
X+001462Y+008891
X+001462Y+008637
X+001031Y+009141
X+002064Y+010225
X+002318Y+010225
X+002318Y+010479
X+002064Y+010479
X+002064Y+010733
X+002318Y+010733
T08
X+001810Y+001794
X+002064Y+001794
X+002064Y+001540
X+002064Y+001286
X+002064Y+001032
X+001810Y+001032
X+001810Y+001286
X+001810Y+001540
X+001810Y+000778
X+002064Y+000778
T00
M30
