G04 DipTrace 2.4.0.2*
%INTopSilk.gbr*%
%MOMM*%
%ADD10C,0.25*%
%ADD16C,0.127*%
%ADD39C,0.559*%
%ADD62C,0.118*%
%ADD63C,0.196*%
%ADD64C,0.157*%
%FSLAX53Y53*%
G04*
G71*
G90*
G75*
G01*
%LNTopSilk*%
%LPD*%
X5239Y73350D2*
D10*
X2699D1*
X5239Y70810D2*
X2699D1*
G02X2699Y73350I370J1270D01*
G01*
G36*
X4045Y71293D2*
X4198D1*
Y72867D1*
X4045D1*
Y71293D1*
G37*
G36*
X3893D2*
X3741D1*
Y72867D1*
X3893D1*
Y71293D1*
G37*
G36*
X4528Y72004D2*
X4198D1*
Y72156D1*
X4528D1*
Y72004D1*
G37*
X5239Y70810D2*
D10*
G03X5239Y73350I-370J1270D01*
G01*
G36*
X3734Y72004D2*
X3404D1*
Y72156D1*
X3734D1*
Y72004D1*
G37*
X8415Y70810D2*
D10*
X10955D1*
X8415Y73350D2*
X10955D1*
G02X10955Y70810I-370J-1270D01*
G01*
G36*
X9609Y72867D2*
X9456D1*
Y71293D1*
X9609D1*
Y72867D1*
G37*
G36*
X9761D2*
X9913D1*
Y71293D1*
X9761D1*
Y72867D1*
G37*
G36*
X9126Y72156D2*
X9456D1*
Y72004D1*
X9126D1*
Y72156D1*
G37*
X8415Y73350D2*
D10*
G03X8415Y70810I370J-1270D01*
G01*
G36*
X9920Y72156D2*
X10250D1*
Y72004D1*
X9920D1*
Y72156D1*
G37*
X2575Y13670D2*
D10*
Y14271D1*
X2275Y13970D2*
X2874D1*
X2591Y11906D2*
X2597Y12080D1*
X2615Y12253D1*
X2645Y12424D1*
X2687Y12592D1*
X2741Y12758D1*
X2806Y12919D1*
X2882Y13075D1*
X2969Y13225D1*
X3066Y13369D1*
X3173Y13506D1*
X3289Y13635D1*
X3414Y13756D1*
X3547Y13868D1*
X3688Y13970D1*
X3835Y14062D1*
X3989Y14144D1*
X4147Y14214D1*
X4311Y14274D1*
X4478Y14322D1*
X4648Y14358D1*
X4820Y14382D1*
X4993Y14394D1*
X5167D1*
X5340Y14382D1*
X5512Y14358D1*
X5682Y14322D1*
X5849Y14274D1*
X6012Y14214D1*
X6171Y14144D1*
X6325Y14062D1*
X6472Y13970D1*
X6612Y13868D1*
X6746Y13756D1*
X6871Y13635D1*
X6987Y13506D1*
X7094Y13369D1*
X7191Y13225D1*
X7278Y13075D1*
X7354Y12919D1*
X7419Y12758D1*
X7473Y12592D1*
X7515Y12424D1*
X7545Y12253D1*
X7563Y12080D1*
X7569Y11906D1*
X7563Y11733D1*
X7545Y11560D1*
X7515Y11389D1*
X7473Y11220D1*
X7419Y11055D1*
X7354Y10894D1*
X7278Y10738D1*
X7191Y10587D1*
X7094Y10443D1*
X6987Y10306D1*
X6871Y10177D1*
X6746Y10056D1*
X6612Y9945D1*
X6472Y9843D1*
X6325Y9751D1*
X6171Y9669D1*
X6012Y9598D1*
X5849Y9539D1*
X5682Y9491D1*
X5512Y9455D1*
X5340Y9431D1*
X5167Y9419D1*
X4993D1*
X4820Y9431D1*
X4648Y9455D1*
X4478Y9491D1*
X4311Y9539D1*
X4147Y9598D1*
X3989Y9669D1*
X3835Y9751D1*
X3688Y9843D1*
X3547Y9945D1*
X3414Y10056D1*
X3289Y10177D1*
X3173Y10306D1*
X3066Y10443D1*
X2969Y10587D1*
X2882Y10738D1*
X2806Y10894D1*
X2741Y11055D1*
X2687Y11220D1*
X2645Y11389D1*
X2615Y11560D1*
X2597Y11733D1*
X2591Y11906D1*
X5004Y13964D2*
D16*
Y12694D1*
X5334Y13964D2*
G03X5334Y12694I1048J-635D01*
G01*
X5004Y13329D2*
X3963D1*
X5156D2*
X6197D1*
X11582Y10636D2*
D10*
Y13176D1*
X9042Y10636D2*
Y13176D1*
G02X11582Y13176I1270J-370D01*
G01*
G36*
X9525Y11830D2*
X11100D1*
Y11678D1*
X9525D1*
Y11830D1*
G37*
G36*
Y11982D2*
X11100D1*
Y12135D1*
X9525D1*
Y11982D1*
G37*
G36*
X10236Y11348D2*
X10389D1*
Y11678D1*
X10236D1*
Y11348D1*
G37*
X9042Y10636D2*
D10*
G03X11582Y10636I1270J370D01*
G01*
G36*
X10236Y12141D2*
X10389D1*
Y12471D1*
X10236D1*
Y12141D1*
G37*
X11582Y4128D2*
D10*
Y6668D1*
X9042Y4128D2*
Y6668D1*
G02X11582Y6668I1270J-370D01*
G01*
G36*
X9525Y5322D2*
X11100D1*
Y5169D1*
X9525D1*
Y5322D1*
G37*
G36*
Y5474D2*
X11100D1*
Y5626D1*
X9525D1*
Y5474D1*
G37*
G36*
X10236Y4839D2*
X10389D1*
Y5169D1*
X10236D1*
Y4839D1*
G37*
X9042Y4128D2*
D10*
G03X11582Y4128I1270J370D01*
G01*
G36*
X10236Y5633D2*
X10389D1*
Y5963D1*
X10236D1*
Y5633D1*
G37*
X11462Y83808D2*
D10*
X9162D1*
Y88912D1*
X11462Y84656D2*
X9162D1*
X11462Y88912D2*
X9162D1*
X11462Y83808D2*
Y88912D1*
X9677Y86360D2*
X10947D1*
G36*
X10312Y86519D2*
X9677Y87153D1*
X10947D1*
X10312Y86519D1*
G37*
G36*
X10236Y87141D2*
Y88106D1*
X10389D1*
Y87141D1*
X10236D1*
G37*
G36*
Y85395D2*
Y86360D1*
X10389D1*
Y85395D1*
X10236D1*
G37*
X10312Y83820D2*
D10*
Y82233D1*
Y88900D2*
Y90487D1*
X9677Y86360D2*
Y86042D1*
X9836D1*
X10947Y86360D2*
Y86678D1*
X10789D1*
X9882Y48223D2*
X7582D1*
Y53327D1*
X9882Y49071D2*
X7582D1*
X9882Y53327D2*
X7582D1*
X9882Y48223D2*
Y53327D1*
X8097Y50775D2*
X9367D1*
G36*
X8732Y50934D2*
X8097Y51568D1*
X9367D1*
X8732Y50934D1*
G37*
G36*
X8656Y51555D2*
Y52521D1*
X8808D1*
Y51555D1*
X8656D1*
G37*
G36*
Y49810D2*
Y50775D1*
X8808D1*
Y49810D1*
X8656D1*
G37*
X8732Y48234D2*
D10*
Y46648D1*
Y53315D2*
Y54902D1*
X8097Y50775D2*
Y50457D1*
X8256D1*
X9367Y50775D2*
Y51093D1*
X9208D1*
X12899Y48223D2*
X10599D1*
Y53327D1*
X12899Y49071D2*
X10599D1*
X12899Y53327D2*
X10599D1*
X12899Y48223D2*
Y53327D1*
X11114Y50775D2*
X12384D1*
G36*
X11749Y50934D2*
X11114Y51568D1*
X12384D1*
X11749Y50934D1*
G37*
G36*
X11673Y51555D2*
Y52520D1*
X11825D1*
Y51555D1*
X11673D1*
G37*
G36*
Y49809D2*
Y50775D1*
X11825D1*
Y49809D1*
X11673D1*
G37*
X11749Y48234D2*
D10*
Y46647D1*
Y53315D2*
Y54902D1*
X11114Y50775D2*
Y50457D1*
X11272D1*
X12384Y50775D2*
Y51092D1*
X12225D1*
X3538Y33458D2*
X1238D1*
Y38561D1*
X3538Y34305D2*
X1238D1*
X3538Y38561D2*
X1238D1*
X3538Y33458D2*
Y38561D1*
X1753Y36009D2*
X3023D1*
G36*
X2388Y36168D2*
X1753Y36803D1*
X3023D1*
X2388Y36168D1*
G37*
G36*
X2311Y36790D2*
Y37755D1*
X2464D1*
Y36790D1*
X2311D1*
G37*
G36*
Y35044D2*
Y36009D1*
X2464D1*
Y35044D1*
X2311D1*
G37*
X2388Y33469D2*
D10*
Y31882D1*
Y38550D2*
Y40137D1*
X1753Y36009D2*
Y35692D1*
X1911D1*
X3023Y36009D2*
Y36327D1*
X2864D1*
X6560Y33458D2*
X4260D1*
Y38561D1*
X6560Y34305D2*
X4260D1*
X6560Y38561D2*
X4260D1*
X6560Y33458D2*
Y38561D1*
X4775Y36009D2*
X6045D1*
G36*
X5410Y36168D2*
X4775Y36803D1*
X6045D1*
X5410Y36168D1*
G37*
G36*
X5334Y36790D2*
Y37755D1*
X5486D1*
Y36790D1*
X5334D1*
G37*
G36*
Y35044D2*
Y36009D1*
X5486D1*
Y35044D1*
X5334D1*
G37*
X5410Y33469D2*
D10*
Y31882D1*
Y38550D2*
Y40137D1*
X4775Y36009D2*
Y35692D1*
X4934D1*
X6045Y36009D2*
Y36327D1*
X5887D1*
X9557Y33458D2*
X7257D1*
Y38561D1*
X9557Y34305D2*
X7257D1*
X9557Y38561D2*
X7257D1*
X9557Y33458D2*
Y38561D1*
X7772Y36009D2*
X9042D1*
G36*
X8407Y36168D2*
X7772Y36803D1*
X9042D1*
X8407Y36168D1*
G37*
G36*
X8331Y36790D2*
Y37755D1*
X8484D1*
Y36790D1*
X8331D1*
G37*
G36*
Y35044D2*
Y36009D1*
X8484D1*
Y35044D1*
X8331D1*
G37*
X8407Y33469D2*
D10*
Y31882D1*
Y38550D2*
Y40137D1*
X7772Y36009D2*
Y35692D1*
X7931D1*
X9042Y36009D2*
Y36327D1*
X8884D1*
X12580Y33458D2*
X10280D1*
Y38561D1*
X12580Y34305D2*
X10280D1*
X12580Y38561D2*
X10280D1*
X12580Y33458D2*
Y38561D1*
X10795Y36009D2*
X12065D1*
G36*
X11430Y36168D2*
X10795Y36803D1*
X12065D1*
X11430Y36168D1*
G37*
G36*
X11354Y36790D2*
Y37755D1*
X11506D1*
Y36790D1*
X11354D1*
G37*
G36*
Y35044D2*
Y36009D1*
X11506D1*
Y35044D1*
X11354D1*
G37*
X11430Y33469D2*
D10*
Y31882D1*
Y38550D2*
Y40137D1*
X10795Y36009D2*
Y35692D1*
X10954D1*
X12065Y36009D2*
Y36327D1*
X11906D1*
G36*
X191Y80010D2*
X1194D1*
Y92710D1*
X191D1*
Y80010D1*
G37*
X4763Y80963D2*
D10*
X5398D1*
Y81598D1*
X4763D1*
Y83502D2*
X5398D1*
Y84138D1*
X4763D1*
Y86043D2*
X5398D1*
Y86677D1*
X4763D1*
Y88582D2*
X5398D1*
Y89218D1*
X4763D1*
X635Y80963D2*
X2858D1*
Y81598D1*
X635D1*
Y80963D1*
Y83502D2*
X2858D1*
Y84138D1*
X635D1*
Y83502D1*
Y86043D2*
X2858D1*
Y86677D1*
X635D1*
Y86043D1*
Y88582D2*
X2858D1*
Y89218D1*
X635D1*
Y88582D1*
X4763Y91123D2*
X5398D1*
Y91757D1*
X4763D1*
X635Y91123D2*
X2858D1*
Y91757D1*
X635D1*
Y91123D1*
G36*
X191Y44450D2*
X1194D1*
Y57150D1*
X191D1*
Y44450D1*
G37*
X4763Y45403D2*
D10*
X5398D1*
Y46037D1*
X4763D1*
Y47942D2*
X5398D1*
Y48578D1*
X4763D1*
Y50483D2*
X5398D1*
Y51117D1*
X4763D1*
Y53022D2*
X5398D1*
Y53658D1*
X4763D1*
X635Y45403D2*
X2858D1*
Y46037D1*
X635D1*
Y45403D1*
Y47942D2*
X2858D1*
Y48578D1*
X635D1*
Y47942D1*
Y50483D2*
X2858D1*
Y51117D1*
X635D1*
Y50483D1*
Y53022D2*
X2858D1*
Y53658D1*
X635D1*
Y53022D1*
X4763Y55562D2*
X5398D1*
Y56197D1*
X4763D1*
X635Y55562D2*
X2858D1*
Y56197D1*
X635D1*
Y55562D1*
X19370Y105845D2*
Y100976D1*
Y108596D2*
Y100976D1*
X24450Y108596D2*
Y100976D1*
X19370Y108596D2*
X24450D1*
X19370Y100976D2*
X24450D1*
X20641Y3330D2*
Y2700D1*
X18099Y3330D2*
X20641D1*
X18099D2*
Y2700D1*
X20641Y23020D2*
Y22390D1*
X18099D2*
X20641D1*
X18099Y23020D2*
Y22390D1*
X14925Y2700D2*
X23815D1*
X14925Y23020D2*
X23815D1*
X14925D2*
Y2700D1*
X23051Y10828D2*
X23815D1*
X23051Y14892D2*
Y10828D1*
Y14892D2*
X23815D1*
Y10828D2*
Y2700D1*
Y23020D2*
Y14892D1*
X2864Y103517D2*
X2388Y103834D1*
Y105103D2*
Y106057D1*
Y98754D2*
Y97801D1*
X1435Y105103D2*
X3340D1*
X1435D2*
X1118Y104786D1*
X3340Y105103D2*
X3657Y104786D1*
X1118D2*
Y103834D1*
X3657Y104786D2*
Y103834D1*
X1118D2*
X1435Y103517D1*
Y100341D1*
X1118Y100023D1*
Y99071D1*
X1435Y98754D1*
X3340D1*
X3657Y99071D1*
Y100023D1*
X3340Y100341D1*
Y103517D1*
X3657Y103834D1*
X2388Y99547D2*
Y100023D1*
X1911Y100341D1*
X2864Y100977D1*
X1911Y101611D1*
X2864Y102246D1*
X1911Y102881D1*
X2864Y103517D1*
X2388Y103834D2*
Y104310D1*
X5874Y103517D2*
X5398Y103834D1*
Y105103D2*
Y106057D1*
Y98754D2*
Y97801D1*
X4446Y105103D2*
X6351D1*
X4446D2*
X4128Y104786D1*
X6351Y105103D2*
X6668Y104786D1*
X4128D2*
Y103834D1*
X6668Y104786D2*
Y103834D1*
X4128D2*
X4446Y103517D1*
Y100341D1*
X4128Y100023D1*
Y99071D1*
X4446Y98754D1*
X6351D1*
X6668Y99071D1*
Y100023D1*
X6351Y100341D1*
Y103517D1*
X6668Y103834D1*
X5398Y99547D2*
Y100023D1*
X4922Y100341D1*
X5874Y100977D1*
X4922Y101611D1*
X5874Y102246D1*
X4922Y102881D1*
X5874Y103517D1*
X5398Y103834D2*
Y104310D1*
X8891Y103517D2*
X8415Y103834D1*
Y105103D2*
Y106057D1*
Y98754D2*
Y97801D1*
X7462Y105103D2*
X9367D1*
X7462D2*
X7145Y104786D1*
X9367Y105103D2*
X9684Y104786D1*
X7145D2*
Y103834D1*
X9684Y104786D2*
Y103834D1*
X7145D2*
X7462Y103517D1*
Y100341D1*
X7145Y100023D1*
Y99071D1*
X7462Y98754D1*
X9367D1*
X9684Y99071D1*
Y100023D1*
X9367Y100341D1*
Y103517D1*
X9684Y103834D1*
X8415Y99547D2*
Y100023D1*
X7938Y100341D1*
X8891Y100977D1*
X7938Y101611D1*
X8891Y102246D1*
X7938Y102881D1*
X8891Y103517D1*
X8415Y103834D2*
Y104310D1*
X11908Y103517D2*
X11431Y103834D1*
Y105103D2*
Y106057D1*
Y98754D2*
Y97801D1*
X10479Y105103D2*
X12384D1*
X10479D2*
X10161Y104786D1*
X12384Y105103D2*
X12701Y104786D1*
X10161D2*
Y103834D1*
X12701Y104786D2*
Y103834D1*
X10161D2*
X10479Y103517D1*
Y100341D1*
X10161Y100023D1*
Y99071D1*
X10479Y98754D1*
X12384D1*
X12701Y99071D1*
Y100023D1*
X12384Y100341D1*
Y103517D1*
X12701Y103834D1*
X11431Y99547D2*
Y100023D1*
X10955Y100341D1*
X11908Y100977D1*
X10955Y101611D1*
X11908Y102246D1*
X10955Y102881D1*
X11908Y103517D1*
X11431Y103834D2*
Y104310D1*
X14924Y103517D2*
X14448Y103834D1*
Y105103D2*
Y106057D1*
Y98754D2*
Y97801D1*
X13495Y105103D2*
X15400D1*
X13495D2*
X13178Y104786D1*
X15400Y105103D2*
X15718Y104786D1*
X13178D2*
Y103834D1*
X15718Y104786D2*
Y103834D1*
X13178D2*
X13495Y103517D1*
Y100341D1*
X13178Y100023D1*
Y99071D1*
X13495Y98754D1*
X15400D1*
X15718Y99071D1*
Y100023D1*
X15400Y100341D1*
Y103517D1*
X15718Y103834D1*
X14448Y99547D2*
Y100023D1*
X13971Y100341D1*
X14924Y100977D1*
X13971Y101611D1*
X14924Y102246D1*
X13971Y102881D1*
X14924Y103517D1*
X14448Y103834D2*
Y104310D1*
X17941Y103517D2*
X17464Y103834D1*
Y105103D2*
Y106057D1*
Y98754D2*
Y97801D1*
X16512Y105103D2*
X18417D1*
X16512D2*
X16194Y104786D1*
X18417Y105103D2*
X18734Y104786D1*
X16194D2*
Y103834D1*
X18734Y104786D2*
Y103834D1*
X16194D2*
X16512Y103517D1*
Y100341D1*
X16194Y100023D1*
Y99071D1*
X16512Y98754D1*
X18417D1*
X18734Y99071D1*
Y100023D1*
X18417Y100341D1*
Y103517D1*
X18734Y103834D1*
X17464Y99547D2*
Y100023D1*
X16988Y100341D1*
X17941Y100977D1*
X16988Y101611D1*
X17941Y102246D1*
X16988Y102881D1*
X17941Y103517D1*
X17464Y103834D2*
Y104310D1*
X1911Y61918D2*
X2388Y61601D1*
Y60331D2*
Y59378D1*
Y66681D2*
Y67634D1*
X3340Y60331D2*
X1435D1*
X3340D2*
X3658Y60649D1*
X1435Y60331D2*
X1118Y60649D1*
X3658D2*
Y61601D1*
X1118Y60649D2*
Y61601D1*
X3658D2*
X3340Y61918D1*
Y65094D1*
X3658Y65411D1*
Y66364D1*
X3340Y66681D1*
X1435D1*
X1118Y66364D1*
Y65411D1*
X1435Y65094D1*
Y61918D1*
X1118Y61601D1*
X2388Y65887D2*
Y65411D1*
X2864Y65094D1*
X1911Y64458D1*
X2864Y63823D1*
X1911Y63189D1*
X2864Y62554D1*
X1911Y61918D1*
X2388Y61601D2*
Y61125D1*
X4934Y61918D2*
X5410Y61601D1*
Y60331D2*
Y59378D1*
Y66681D2*
Y67634D1*
X6362Y60331D2*
X4458D1*
X6362D2*
X6680Y60649D1*
X4458Y60331D2*
X4140Y60649D1*
X6680D2*
Y61601D1*
X4140Y60649D2*
Y61601D1*
X6680D2*
X6362Y61918D1*
Y65094D1*
X6680Y65411D1*
Y66364D1*
X6362Y66681D1*
X4458D1*
X4140Y66364D1*
Y65411D1*
X4458Y65094D1*
Y61918D1*
X4140Y61601D1*
X5410Y65887D2*
Y65411D1*
X5887Y65094D1*
X4934Y64458D1*
X5887Y63823D1*
X4934Y63189D1*
X5887Y62554D1*
X4934Y61918D1*
X5410Y61601D2*
Y61125D1*
X7931Y61918D2*
X8408Y61601D1*
Y60331D2*
Y59378D1*
Y66681D2*
Y67634D1*
X9360Y60331D2*
X7455D1*
X9360D2*
X9677Y60649D1*
X7455Y60331D2*
X7138Y60649D1*
X9677D2*
Y61601D1*
X7138Y60649D2*
Y61601D1*
X9677D2*
X9360Y61918D1*
Y65094D1*
X9677Y65411D1*
Y66364D1*
X9360Y66681D1*
X7455D1*
X7138Y66364D1*
Y65411D1*
X7455Y65094D1*
Y61918D1*
X7138Y61601D1*
X8408Y65887D2*
Y65411D1*
X8884Y65094D1*
X7931Y64458D1*
X8884Y63823D1*
X7931Y63189D1*
X8884Y62554D1*
X7931Y61918D1*
X8408Y61601D2*
Y61125D1*
X10954Y61918D2*
X11430Y61601D1*
Y60331D2*
Y59378D1*
Y66681D2*
Y67634D1*
X12382Y60331D2*
X10477D1*
X12382D2*
X12700Y60649D1*
X10477Y60331D2*
X10160Y60649D1*
X12700D2*
Y61601D1*
X10160Y60649D2*
Y61601D1*
X12700D2*
X12382Y61918D1*
Y65094D1*
X12700Y65411D1*
Y66364D1*
X12382Y66681D1*
X10477D1*
X10160Y66364D1*
Y65411D1*
X10477Y65094D1*
Y61918D1*
X10160Y61601D1*
X11430Y65887D2*
Y65411D1*
X11906Y65094D1*
X10954Y64458D1*
X11906Y63823D1*
X10954Y63189D1*
X11906Y62554D1*
X10954Y61918D1*
X11430Y61601D2*
Y61125D1*
X2864Y23330D2*
X2388Y23648D1*
Y24917D2*
Y25870D1*
Y18568D2*
Y17614D1*
X1435Y24917D2*
X3340D1*
X1435D2*
X1118Y24600D1*
X3340Y24917D2*
X3657Y24600D1*
X1118D2*
Y23648D1*
X3657Y24600D2*
Y23648D1*
X1118D2*
X1435Y23330D1*
Y20154D1*
X1118Y19837D1*
Y18885D1*
X1435Y18568D1*
X3340D1*
X3657Y18885D1*
Y19837D1*
X3340Y20154D1*
Y23330D1*
X3657Y23648D1*
X2388Y19361D2*
Y19837D1*
X1911Y20154D1*
X2864Y20790D1*
X1911Y21425D1*
X2864Y22060D1*
X1911Y22694D1*
X2864Y23330D1*
X2388Y23648D2*
Y24124D1*
X4922Y20154D2*
X5398Y19837D1*
Y18568D2*
Y17614D1*
Y24917D2*
Y25870D1*
X6350Y18568D2*
X4445D1*
X6350D2*
X6668Y18885D1*
X4445Y18568D2*
X4128Y18885D1*
X6668D2*
Y19837D1*
X4128Y18885D2*
Y19837D1*
X6668D2*
X6350Y20154D1*
Y23330D1*
X6668Y23648D1*
Y24600D1*
X6350Y24917D1*
X4445D1*
X4128Y24600D1*
Y23648D1*
X4445Y23330D1*
Y20154D1*
X4128Y19837D1*
X5398Y24124D2*
Y23648D1*
X5874Y23330D1*
X4922Y22694D1*
X5874Y22060D1*
X4922Y21425D1*
X5874Y20790D1*
X4922Y20154D1*
X5398Y19837D2*
Y19361D1*
X8884Y23330D2*
X8407Y23648D1*
Y24917D2*
Y25870D1*
Y18568D2*
Y17614D1*
X7455Y24917D2*
X9360D1*
X7455D2*
X7137Y24600D1*
X9360Y24917D2*
X9677Y24600D1*
X7137D2*
Y23648D1*
X9677Y24600D2*
Y23648D1*
X7137D2*
X7455Y23330D1*
Y20154D1*
X7137Y19837D1*
Y18885D1*
X7455Y18568D1*
X9360D1*
X9677Y18885D1*
Y19837D1*
X9360Y20154D1*
Y23330D1*
X9677Y23648D1*
X8407Y19361D2*
Y19837D1*
X7931Y20154D1*
X8884Y20790D1*
X7931Y21425D1*
X8884Y22060D1*
X7931Y22694D1*
X8884Y23330D1*
X8407Y23648D2*
Y24124D1*
X10955Y20154D2*
X11431Y19837D1*
Y18568D2*
Y17614D1*
Y24917D2*
Y25870D1*
X12383Y18568D2*
X10479D1*
X12383D2*
X12701Y18885D1*
X10479Y18568D2*
X10161Y18885D1*
X12701D2*
Y19837D1*
X10161Y18885D2*
Y19837D1*
X12701D2*
X12383Y20154D1*
Y23330D1*
X12701Y23648D1*
Y24600D1*
X12383Y24917D1*
X10479D1*
X10161Y24600D1*
Y23648D1*
X10479Y23330D1*
Y20154D1*
X10161Y19837D1*
X11431Y24124D2*
Y23648D1*
X11908Y23330D1*
X10955Y22694D1*
X11908Y22060D1*
X10955Y21425D1*
X11908Y20790D1*
X10955Y20154D1*
X11431Y19837D2*
Y19361D1*
X15828Y95480D2*
Y59480D1*
X21028Y95480D2*
Y59480D1*
X15828D2*
X21028D1*
X15828Y95480D2*
X17828D1*
X21028D2*
X19028D1*
X17828D2*
G03X19028Y95480I600J3D01*
G01*
X21028Y57590D2*
Y37990D1*
X15828D2*
X21028D1*
X15828Y57590D2*
Y37990D1*
Y57590D2*
X17828D1*
X21028D2*
X19028D1*
X17828D2*
G03X19028Y57590I600J0D01*
G01*
X21017Y35960D2*
Y25960D1*
X15816D2*
X21017D1*
X15816Y35960D2*
Y25960D1*
Y35960D2*
X17816D1*
X21017D2*
X19017D1*
X17816D2*
G03X19017Y35960I600J0D01*
G01*
X3160Y3254D2*
G02X7001Y3254I1921J1691D01*
G01*
X3160D1*
X3838Y74184D2*
X9933D1*
X3838Y79185D2*
X9933D1*
X3838Y74784D2*
X9933D1*
Y78585D2*
X3838D1*
X6631Y77447D2*
X7140D1*
Y75922D1*
X6631D1*
Y77447D1*
X7520D2*
Y76684D1*
Y75922D1*
X6251Y77447D2*
Y76684D1*
Y75922D1*
X7520Y76684D2*
X8156D1*
X6251D2*
X5615D1*
X3838Y79185D2*
G03X3838Y74184I-194J-2500D01*
G01*
X9933D2*
G03X9933Y79185I194J2500D01*
G01*
X3838Y78585D2*
G03X3838Y74784I-192J-1901D01*
G01*
X9933D2*
G03X9933Y78585I192J1901D01*
G01*
G36*
X318Y2858D2*
X12860D1*
Y159D1*
X318D1*
Y2858D1*
G37*
G36*
X19926Y107325D2*
X18814Y106532D1*
Y108119D1*
D1*
X19926Y107325D1*
G37*
X1652Y73967D2*
D62*
X1616Y74039D1*
X1543Y74112D1*
X1470Y74148D1*
X1324D1*
X1251Y74112D1*
X1179Y74039D1*
X1142Y73967D1*
X1105Y73857D1*
Y73674D1*
X1142Y73566D1*
X1179Y73492D1*
X1251Y73420D1*
X1324Y73383D1*
X1470D1*
X1543Y73420D1*
X1616Y73492D1*
X1652Y73566D1*
X1887Y74002D2*
X1961Y74039D1*
X2070Y74148D1*
Y73383D1*
X11967Y73966D2*
X11931Y74039D1*
X11857Y74112D1*
X11785Y74148D1*
X11639D1*
X11566Y74112D1*
X11493Y74039D1*
X11456Y73966D1*
X11420Y73857D1*
Y73674D1*
X11456Y73565D1*
X11493Y73492D1*
X11566Y73420D1*
X11639Y73383D1*
X11785D1*
X11857Y73420D1*
X11931Y73492D1*
X11967Y73565D1*
X12239Y73966D2*
Y74002D1*
X12275Y74075D1*
X12312Y74111D1*
X12385Y74147D1*
X12531D1*
X12603Y74111D1*
X12639Y74075D1*
X12676Y74002D1*
Y73929D1*
X12639Y73856D1*
X12567Y73747D1*
X12202Y73383D1*
X12712D1*
X4822Y15329D2*
X4786Y15402D1*
X4713Y15475D1*
X4640Y15511D1*
X4495D1*
X4421Y15475D1*
X4349Y15402D1*
X4312Y15329D1*
X4276Y15220D1*
Y15037D1*
X4312Y14929D1*
X4349Y14855D1*
X4421Y14783D1*
X4495Y14746D1*
X4640D1*
X4713Y14783D1*
X4786Y14855D1*
X4822Y14929D1*
X5131Y15511D2*
X5531D1*
X5313Y15219D1*
X5422D1*
X5495Y15183D1*
X5531Y15147D1*
X5568Y15037D1*
Y14965D1*
X5531Y14855D1*
X5459Y14782D1*
X5349Y14746D1*
X5240D1*
X5131Y14782D1*
X5095Y14819D1*
X5058Y14891D1*
X10195Y15063D2*
X10159Y15135D1*
X10085Y15209D1*
X10013Y15245D1*
X9867D1*
X9794Y15209D1*
X9721Y15135D1*
X9684Y15063D1*
X9648Y14953D1*
Y14771D1*
X9684Y14662D1*
X9721Y14589D1*
X9794Y14516D1*
X9867Y14479D1*
X10013D1*
X10085Y14516D1*
X10159Y14589D1*
X10195Y14662D1*
X10795Y14479D2*
Y15244D1*
X10430Y14734D1*
X10977D1*
X10213Y8554D2*
X10177Y8627D1*
X10103Y8700D1*
X10031Y8736D1*
X9885D1*
X9812Y8700D1*
X9739Y8627D1*
X9702Y8554D1*
X9666Y8445D1*
Y8262D1*
X9702Y8153D1*
X9739Y8080D1*
X9812Y8008D1*
X9885Y7971D1*
X10031D1*
X10103Y8008D1*
X10177Y8080D1*
X10213Y8153D1*
X10885Y8736D2*
X10521D1*
X10485Y8408D1*
X10521Y8444D1*
X10631Y8481D1*
X10740D1*
X10849Y8444D1*
X10922Y8372D1*
X10959Y8262D1*
Y8190D1*
X10922Y8080D1*
X10849Y8007D1*
X10740Y7971D1*
X10631D1*
X10521Y8007D1*
X10485Y8044D1*
X10448Y8116D1*
X10642Y89942D2*
Y89176D1*
X10897D1*
X11007Y89213D1*
X11080Y89286D1*
X11116Y89359D1*
X11152Y89468D1*
Y89650D1*
X11116Y89760D1*
X11080Y89832D1*
X11007Y89906D1*
X10897Y89942D1*
X10642D1*
X11388Y89795D2*
X11461Y89832D1*
X11570Y89941D1*
Y89176D1*
X9057Y54357D2*
Y53591D1*
X9312D1*
X9421Y53628D1*
X9495Y53700D1*
X9531Y53774D1*
X9567Y53882D1*
Y54065D1*
X9531Y54175D1*
X9495Y54247D1*
X9421Y54320D1*
X9312Y54357D1*
X9057D1*
X9839Y54174D2*
Y54210D1*
X9876Y54283D1*
X9912Y54320D1*
X9985Y54356D1*
X10131D1*
X10203Y54320D1*
X10240Y54283D1*
X10277Y54210D1*
Y54138D1*
X10240Y54064D1*
X10167Y53956D1*
X9802Y53591D1*
X10313D1*
X12073Y54356D2*
Y53591D1*
X12328D1*
X12438Y53628D1*
X12511Y53700D1*
X12547Y53774D1*
X12584Y53882D1*
Y54065D1*
X12547Y54174D1*
X12511Y54247D1*
X12438Y54320D1*
X12328Y54356D1*
X12073D1*
X12892D2*
X13292D1*
X13074Y54064D1*
X13184D1*
X13256Y54028D1*
X13292Y53992D1*
X13329Y53882D1*
Y53810D1*
X13292Y53700D1*
X13220Y53627D1*
X13110Y53591D1*
X13001D1*
X12892Y53627D1*
X12856Y53664D1*
X12819Y53736D1*
X1741Y42925D2*
Y42160D1*
X1997D1*
X2106Y42197D1*
X2179Y42269D1*
X2216Y42343D1*
X2252Y42451D1*
Y42634D1*
X2216Y42743D1*
X2179Y42816D1*
X2106Y42889D1*
X1997Y42925D1*
X1741D1*
X2852Y42160D2*
Y42925D1*
X2487Y42415D1*
X3034D1*
X4782Y42925D2*
Y42160D1*
X5037D1*
X5147Y42197D1*
X5220Y42269D1*
X5256Y42343D1*
X5293Y42451D1*
Y42634D1*
X5256Y42743D1*
X5220Y42816D1*
X5147Y42889D1*
X5037Y42925D1*
X4782D1*
X5965D2*
X5601D1*
X5565Y42597D1*
X5601Y42633D1*
X5711Y42670D1*
X5819D1*
X5929Y42633D1*
X6002Y42561D1*
X6038Y42451D1*
Y42379D1*
X6002Y42269D1*
X5929Y42196D1*
X5819Y42160D1*
X5711D1*
X5601Y42196D1*
X5565Y42233D1*
X5528Y42305D1*
X7798Y42925D2*
Y42160D1*
X8053D1*
X8163Y42197D1*
X8236Y42269D1*
X8272Y42343D1*
X8308Y42451D1*
Y42634D1*
X8272Y42743D1*
X8236Y42816D1*
X8163Y42889D1*
X8053Y42925D1*
X7798D1*
X8981Y42816D2*
X8945Y42888D1*
X8835Y42925D1*
X8763D1*
X8653Y42888D1*
X8580Y42779D1*
X8544Y42597D1*
Y42415D1*
X8580Y42269D1*
X8653Y42196D1*
X8763Y42160D1*
X8799D1*
X8907Y42196D1*
X8981Y42269D1*
X9017Y42379D1*
Y42415D1*
X8981Y42524D1*
X8907Y42597D1*
X8799Y42633D1*
X8763D1*
X8653Y42597D1*
X8580Y42524D1*
X8544Y42415D1*
X10802Y42925D2*
Y42160D1*
X11057D1*
X11167Y42197D1*
X11240Y42269D1*
X11276Y42343D1*
X11312Y42451D1*
Y42634D1*
X11276Y42743D1*
X11240Y42816D1*
X11167Y42889D1*
X11057Y42925D1*
X10802D1*
X11693Y42160D2*
X12058Y42925D1*
X11548D1*
X1593Y92790D2*
X1922D1*
X2031Y92826D1*
X2068Y92863D1*
X2104Y92936D1*
Y93045D1*
X2068Y93118D1*
X2031Y93155D1*
X1922Y93191D1*
X1593D1*
Y92425D1*
X2339Y93044D2*
X2412Y93081D1*
X2522Y93190D1*
Y92425D1*
X1747Y44370D2*
X2076D1*
X2184Y44406D1*
X2221Y44443D1*
X2257Y44516D1*
Y44625D1*
X2221Y44697D1*
X2184Y44735D1*
X2076Y44771D1*
X1747D1*
Y44005D1*
X2530Y44588D2*
Y44624D1*
X2566Y44697D1*
X2602Y44734D1*
X2676Y44770D1*
X2821D1*
X2894Y44734D1*
X2930Y44697D1*
X2967Y44624D1*
Y44552D1*
X2930Y44478D1*
X2858Y44370D1*
X2493Y44005D1*
X3003D1*
X21282Y103437D2*
X21610D1*
X21719Y103473D1*
X21756Y103510D1*
X21792Y103582D1*
Y103692D1*
X21756Y103764D1*
X21719Y103801D1*
X21610Y103838D1*
X21282D1*
Y103072D1*
X22101Y103837D2*
X22501D1*
X22283Y103545D1*
X22392D1*
X22465Y103509D1*
X22501Y103473D1*
X22538Y103363D1*
Y103291D1*
X22501Y103182D1*
X22429Y103108D1*
X22319Y103072D1*
X22210D1*
X22101Y103108D1*
X22065Y103145D1*
X22028Y103218D1*
X18724Y21671D2*
X19052D1*
X19161Y21707D1*
X19198Y21745D1*
X19234Y21817D1*
Y21926D1*
X19198Y21999D1*
X19161Y22036D1*
X19052Y22072D1*
X18724D1*
Y21307D1*
X19834D2*
Y22071D1*
X19470Y21562D1*
X20016D1*
X1923Y108471D2*
X2251D1*
X2360Y108508D1*
X2397Y108544D1*
X2434Y108617D1*
Y108690D1*
X2397Y108763D1*
X2360Y108800D1*
X2251Y108836D1*
X1923D1*
Y108070D1*
X2178Y108471D2*
X2434Y108070D1*
X2669Y108689D2*
X2742Y108726D1*
X2852Y108835D1*
Y108070D1*
X4770Y108471D2*
X5098D1*
X5207Y108508D1*
X5244Y108544D1*
X5280Y108617D1*
Y108690D1*
X5244Y108763D1*
X5207Y108800D1*
X5098Y108836D1*
X4770D1*
Y108070D1*
X5025Y108471D2*
X5280Y108070D1*
X5553Y108653D2*
Y108689D1*
X5589Y108763D1*
X5625Y108799D1*
X5698Y108835D1*
X5844D1*
X5917Y108799D1*
X5953Y108763D1*
X5990Y108689D1*
Y108617D1*
X5953Y108544D1*
X5880Y108435D1*
X5516Y108070D1*
X6026D1*
X7786Y108471D2*
X8114D1*
X8224Y108508D1*
X8261Y108544D1*
X8297Y108617D1*
Y108690D1*
X8261Y108763D1*
X8224Y108800D1*
X8114Y108836D1*
X7786D1*
Y108070D1*
X8042Y108471D2*
X8297Y108070D1*
X8605Y108835D2*
X9006D1*
X8787Y108544D1*
X8897D1*
X8969Y108507D1*
X9006Y108471D1*
X9043Y108362D1*
Y108289D1*
X9006Y108180D1*
X8933Y108106D1*
X8824Y108070D1*
X8714D1*
X8605Y108106D1*
X8569Y108143D1*
X8532Y108216D1*
X10785Y108471D2*
X11113D1*
X11222Y108508D1*
X11259Y108544D1*
X11295Y108617D1*
Y108690D1*
X11259Y108763D1*
X11222Y108800D1*
X11113Y108836D1*
X10785D1*
Y108070D1*
X11040Y108471D2*
X11295Y108070D1*
X11895D2*
Y108835D1*
X11531Y108325D1*
X12077D1*
X13820Y108471D2*
X14147D1*
X14257Y108508D1*
X14294Y108544D1*
X14330Y108617D1*
Y108690D1*
X14294Y108763D1*
X14257Y108800D1*
X14147Y108836D1*
X13820D1*
Y108070D1*
X14075Y108471D2*
X14330Y108070D1*
X15002Y108835D2*
X14639D1*
X14602Y108507D1*
X14639Y108544D1*
X14748Y108581D1*
X14857D1*
X14966Y108544D1*
X15040Y108471D1*
X15076Y108362D1*
Y108289D1*
X15040Y108180D1*
X14966Y108106D1*
X14857Y108070D1*
X14748D1*
X14639Y108106D1*
X14602Y108143D1*
X14565Y108216D1*
X16855Y108471D2*
X17182D1*
X17292Y108508D1*
X17329Y108544D1*
X17365Y108617D1*
Y108690D1*
X17329Y108763D1*
X17292Y108800D1*
X17182Y108836D1*
X16855D1*
Y108070D1*
X17110Y108471D2*
X17365Y108070D1*
X18038Y108726D2*
X18001Y108799D1*
X17892Y108835D1*
X17819D1*
X17710Y108799D1*
X17637Y108689D1*
X17600Y108507D1*
Y108325D1*
X17637Y108180D1*
X17710Y108106D1*
X17819Y108070D1*
X17856D1*
X17964Y108106D1*
X18038Y108180D1*
X18074Y108289D1*
Y108325D1*
X18038Y108435D1*
X17964Y108507D1*
X17856Y108544D1*
X17819D1*
X17710Y108507D1*
X17637Y108435D1*
X17600Y108325D1*
X1760Y70049D2*
X2087D1*
X2197Y70086D1*
X2234Y70122D1*
X2270Y70194D1*
Y70268D1*
X2234Y70340D1*
X2197Y70377D1*
X2087Y70413D1*
X1760D1*
Y69648D1*
X2015Y70049D2*
X2270Y69648D1*
X2651D2*
X3016Y70412D1*
X2505D1*
X4783Y70049D2*
X5110D1*
X5220Y70086D1*
X5257Y70122D1*
X5293Y70194D1*
Y70268D1*
X5257Y70340D1*
X5220Y70377D1*
X5110Y70413D1*
X4783D1*
Y69648D1*
X5038Y70049D2*
X5293Y69648D1*
X5710Y70412D2*
X5602Y70376D1*
X5565Y70304D1*
Y70230D1*
X5602Y70158D1*
X5674Y70121D1*
X5820Y70085D1*
X5929Y70049D1*
X6002Y69975D1*
X6038Y69903D1*
Y69793D1*
X6002Y69721D1*
X5966Y69684D1*
X5856Y69648D1*
X5710D1*
X5602Y69684D1*
X5565Y69721D1*
X5528Y69793D1*
Y69903D1*
X5565Y69975D1*
X5638Y70049D1*
X5747Y70085D1*
X5892Y70121D1*
X5966Y70158D1*
X6002Y70230D1*
Y70304D1*
X5966Y70376D1*
X5856Y70412D1*
X5710D1*
X7798Y70049D2*
X8125D1*
X8235Y70086D1*
X8272Y70122D1*
X8308Y70194D1*
Y70268D1*
X8272Y70340D1*
X8235Y70377D1*
X8125Y70413D1*
X7798D1*
Y69648D1*
X8053Y70049D2*
X8308Y69648D1*
X9017Y70158D2*
X8980Y70049D1*
X8908Y69975D1*
X8798Y69939D1*
X8762D1*
X8653Y69975D1*
X8580Y70049D1*
X8543Y70158D1*
Y70194D1*
X8580Y70304D1*
X8653Y70376D1*
X8762Y70412D1*
X8798D1*
X8908Y70376D1*
X8980Y70304D1*
X9017Y70158D1*
Y69975D1*
X8980Y69793D1*
X8908Y69684D1*
X8798Y69648D1*
X8726D1*
X8617Y69684D1*
X8580Y69757D1*
X10593Y70049D2*
X10921D1*
X11030Y70086D1*
X11067Y70122D1*
X11103Y70194D1*
Y70268D1*
X11067Y70340D1*
X11030Y70377D1*
X10921Y70413D1*
X10593D1*
Y69648D1*
X10848Y70049D2*
X11103Y69648D1*
X11339Y70267D2*
X11412Y70304D1*
X11521Y70412D1*
Y69648D1*
X11976Y70412D2*
X11866Y70376D1*
X11793Y70267D1*
X11757Y70085D1*
Y69975D1*
X11793Y69793D1*
X11866Y69684D1*
X11976Y69648D1*
X12048D1*
X12158Y69684D1*
X12230Y69793D1*
X12267Y69975D1*
Y70085D1*
X12230Y70267D1*
X12158Y70376D1*
X12048Y70412D1*
X11976D1*
X12230Y70267D2*
X11793Y69793D1*
X1714Y28285D2*
X2042D1*
X2151Y28322D1*
X2188Y28358D1*
X2225Y28431D1*
Y28504D1*
X2188Y28576D1*
X2151Y28613D1*
X2042Y28650D1*
X1714D1*
Y27884D1*
X1969Y28285D2*
X2225Y27884D1*
X2460Y28503D2*
X2533Y28540D1*
X2643Y28649D1*
Y27884D1*
X2878Y28503D2*
X2951Y28540D1*
X3061Y28649D1*
Y27884D1*
X4561Y28285D2*
X4889D1*
X4998Y28322D1*
X5035Y28358D1*
X5071Y28431D1*
Y28504D1*
X5035Y28576D1*
X4998Y28613D1*
X4889Y28650D1*
X4561D1*
Y27884D1*
X4816Y28285D2*
X5071Y27884D1*
X5307Y28503D2*
X5380Y28540D1*
X5490Y28649D1*
Y27884D1*
X5762Y28467D2*
Y28503D1*
X5798Y28576D1*
X5834Y28612D1*
X5908Y28649D1*
X6053D1*
X6126Y28612D1*
X6162Y28576D1*
X6199Y28503D1*
Y28431D1*
X6162Y28357D1*
X6090Y28249D1*
X5725Y27884D1*
X6235D1*
X7570Y28285D2*
X7898D1*
X8007Y28322D1*
X8044Y28358D1*
X8081Y28431D1*
Y28504D1*
X8044Y28576D1*
X8007Y28613D1*
X7898Y28650D1*
X7570D1*
Y27884D1*
X7825Y28285D2*
X8081Y27884D1*
X8316Y28503D2*
X8389Y28540D1*
X8499Y28649D1*
Y27884D1*
X8807Y28649D2*
X9207D1*
X8989Y28357D1*
X9099D1*
X9171Y28321D1*
X9207Y28285D1*
X9244Y28175D1*
Y28103D1*
X9207Y27993D1*
X9135Y27920D1*
X9025Y27884D1*
X8916D1*
X8807Y27920D1*
X8771Y27957D1*
X8734Y28030D1*
X10576Y28126D2*
X10904D1*
X11013Y28163D1*
X11050Y28199D1*
X11087Y28272D1*
Y28345D1*
X11050Y28417D1*
X11013Y28455D1*
X10904Y28491D1*
X10576D1*
Y27725D1*
X10831Y28126D2*
X11087Y27725D1*
X11322Y28344D2*
X11395Y28381D1*
X11505Y28490D1*
Y27725D1*
X12105D2*
Y28490D1*
X11740Y27980D1*
X12287D1*
X21615Y96596D2*
Y96049D1*
X21652Y95940D1*
X21725Y95867D1*
X21834Y95830D1*
X21907D1*
X22016Y95867D1*
X22090Y95940D1*
X22126Y96049D1*
Y96596D1*
X22361Y96449D2*
X22434Y96486D1*
X22544Y96595D1*
Y95830D1*
X21610Y58705D2*
Y58159D1*
X21646Y58049D1*
X21720Y57977D1*
X21829Y57940D1*
X21902D1*
X22011Y57977D1*
X22084Y58049D1*
X22121Y58159D1*
Y58705D1*
X22393Y58523D2*
Y58559D1*
X22429Y58632D1*
X22465Y58668D1*
X22539Y58705D1*
X22684D1*
X22757Y58668D1*
X22793Y58632D1*
X22830Y58559D1*
Y58486D1*
X22793Y58413D1*
X22721Y58305D1*
X22356Y57940D1*
X22866D1*
X21599Y37076D2*
Y36529D1*
X21635Y36420D1*
X21708Y36347D1*
X21818Y36310D1*
X21890D1*
X22000Y36347D1*
X22073Y36420D1*
X22109Y36529D1*
Y37076D1*
X22418Y37075D2*
X22818D1*
X22600Y36784D1*
X22709D1*
X22782Y36747D1*
X22818Y36711D1*
X22855Y36602D1*
Y36529D1*
X22818Y36420D1*
X22746Y36346D1*
X22636Y36310D1*
X22527D1*
X22418Y36346D1*
X22382Y36383D1*
X22345Y36456D1*
X4207Y8620D2*
X4498Y7855D1*
X4790Y8620D1*
X5025Y8255D2*
X5353D1*
X5462Y8293D1*
X5499Y8329D1*
X5536Y8401D1*
Y8474D1*
X5499Y8547D1*
X5462Y8584D1*
X5353Y8620D1*
X5025D1*
Y7855D1*
X5280Y8255D2*
X5536Y7855D1*
X5771Y8474D2*
X5844Y8511D1*
X5954Y8619D1*
Y7855D1*
X6421Y80308D2*
X6932Y79543D1*
Y80308D2*
X6421Y79543D1*
X7167Y80162D2*
X7240Y80199D1*
X7350Y80307D1*
Y79543D1*
X21038Y99465D2*
D63*
X20551Y100741D1*
X20065Y99465D1*
X20248Y99890D2*
X20856D1*
X21430Y100741D2*
X21916Y99465D1*
X22402Y100741D1*
X22794Y100133D2*
X23340D1*
X23523Y100195D1*
X23584Y100255D1*
X23645Y100376D1*
Y100498D1*
X23584Y100619D1*
X23523Y100681D1*
X23340Y100741D1*
X22794D1*
Y99465D1*
X23219Y100133D2*
X23645Y99465D1*
X20700Y99153D2*
Y97877D1*
X21943Y98971D2*
X21823Y99093D1*
X21640Y99153D1*
X21397D1*
X21215Y99093D1*
X21093Y98971D1*
Y98850D1*
X21154Y98728D1*
X21215Y98668D1*
X21335Y98607D1*
X21700Y98485D1*
X21823Y98425D1*
X21883Y98363D1*
X21943Y98242D1*
Y98060D1*
X21823Y97939D1*
X21640Y97877D1*
X21397D1*
X21215Y97939D1*
X21093Y98060D1*
X22335Y98485D2*
X22883D1*
X23064Y98545D1*
X23126Y98607D1*
X23186Y98728D1*
Y98910D1*
X23126Y99031D1*
X23064Y99093D1*
X22883Y99153D1*
X22335D1*
Y97877D1*
X17774Y91976D2*
D64*
X18795Y92366D1*
X17774Y92754D1*
X18114Y92608D2*
Y92122D1*
X18795Y91322D2*
X17774D1*
X18795Y91662D2*
Y90982D1*
X17774Y89891D2*
X18795D1*
X17774Y90279D1*
X18795Y90668D1*
X17774D1*
X18795Y88946D2*
Y89577D1*
X17774D1*
Y88946D1*
X18309Y89577D2*
Y89189D1*
X18552Y87903D2*
X18649Y87952D1*
X18747Y88049D1*
X18795Y88146D1*
Y88340D1*
X18747Y88438D1*
X18649Y88535D1*
X18552Y88584D1*
X18406Y88632D1*
X18163D1*
X18018Y88584D1*
X17920Y88535D1*
X17824Y88438D1*
X17774Y88340D1*
Y88146D1*
X17824Y88049D1*
X17920Y87952D1*
X18018Y87903D1*
X18163D1*
Y88146D1*
X17774Y86811D2*
X18795Y87201D1*
X17774Y87590D1*
X18114Y87444D2*
Y86957D1*
X17774Y86011D2*
X18794D1*
X18114Y86498D1*
Y85769D1*
X18794Y85212D2*
X18746Y85357D1*
X18649Y85407D1*
X18551D1*
X18455Y85357D1*
X18405Y85261D1*
X18357Y85066D1*
X18309Y84920D1*
X18211Y84824D1*
X18114Y84776D1*
X17968D1*
X17872Y84824D1*
X17822Y84872D1*
X17774Y85018D1*
Y85212D1*
X17822Y85357D1*
X17872Y85407D1*
X17968Y85455D1*
X18114D1*
X18211Y85407D1*
X18309Y85309D1*
X18357Y85164D1*
X18405Y84970D1*
X18455Y84872D1*
X18551Y84824D1*
X18649D1*
X18746Y84872D1*
X18794Y85018D1*
Y85212D1*
X17774Y84462D2*
X18794Y83781D1*
Y83225D2*
X18746Y83370D1*
X18649Y83419D1*
X18551D1*
X18455Y83370D1*
X18405Y83273D1*
X18357Y83079D1*
X18309Y82933D1*
X18211Y82836D1*
X18114Y82788D1*
X17968D1*
X17872Y82836D1*
X17822Y82885D1*
X17774Y83031D1*
Y83225D1*
X17822Y83370D1*
X17872Y83419D1*
X17968Y83467D1*
X18114D1*
X18211Y83419D1*
X18309Y83321D1*
X18357Y83177D1*
X18405Y82982D1*
X18455Y82885D1*
X18551Y82836D1*
X18649D1*
X18746Y82885D1*
X18794Y83031D1*
Y83225D1*
Y82232D2*
X18746Y82377D1*
X18649Y82426D1*
X18551D1*
X18455Y82377D1*
X18405Y82280D1*
X18357Y82086D1*
X18309Y81940D1*
X18211Y81843D1*
X18114Y81795D1*
X17968D1*
X17872Y81843D1*
X17822Y81891D1*
X17774Y82037D1*
Y82232D1*
X17822Y82377D1*
X17872Y82426D1*
X17968Y82474D1*
X18114D1*
X18211Y82426D1*
X18309Y82328D1*
X18357Y82183D1*
X18405Y81989D1*
X18455Y81891D1*
X18551Y81843D1*
X18649D1*
X18746Y81891D1*
X18794Y82037D1*
Y82232D1*
X17774Y81481D2*
X18794Y80801D1*
X18600Y80487D2*
X18649Y80389D1*
X18794Y80243D1*
X17774D1*
X18649Y79347D2*
X18746Y79395D1*
X18794Y79541D1*
Y79637D1*
X18746Y79783D1*
X18600Y79881D1*
X18357Y79929D1*
X18114D1*
X17920Y79881D1*
X17822Y79783D1*
X17774Y79637D1*
Y79589D1*
X17822Y79444D1*
X17920Y79347D1*
X18066Y79298D1*
X18114D1*
X18260Y79347D1*
X18357Y79444D1*
X18405Y79589D1*
Y79637D1*
X18357Y79783D1*
X18260Y79881D1*
X18114Y79929D1*
X18794Y78742D2*
X18746Y78887D1*
X18649Y78936D1*
X18551D1*
X18455Y78887D1*
X18405Y78790D1*
X18357Y78596D1*
X18309Y78450D1*
X18211Y78353D1*
X18114Y78305D1*
X17968D1*
X17872Y78353D1*
X17822Y78402D1*
X17774Y78548D1*
Y78742D1*
X17822Y78887D1*
X17872Y78936D1*
X17968Y78984D1*
X18114D1*
X18211Y78936D1*
X18309Y78838D1*
X18357Y78694D1*
X18405Y78499D1*
X18455Y78402D1*
X18551Y78353D1*
X18649D1*
X18746Y78402D1*
X18794Y78548D1*
Y78742D1*
X17933Y50646D2*
X18953Y50159D1*
Y50840D1*
X17933Y49359D2*
X18953D1*
X18273Y49846D1*
Y49117D1*
X18954Y48803D2*
X17933D1*
Y48220D1*
X18808Y47226D2*
X18906Y47322D1*
X18954Y47468D1*
Y47663D1*
X18906Y47809D1*
X18808Y47906D1*
X18711D1*
X18614Y47857D1*
X18565Y47809D1*
X18517Y47712D1*
X18419Y47420D1*
X18371Y47322D1*
X18322Y47274D1*
X18225Y47226D1*
X18079D1*
X17982Y47322D1*
X17933Y47468D1*
Y47663D1*
X17982Y47809D1*
X18079Y47906D1*
X18758Y46912D2*
X18808Y46814D1*
X18953Y46668D1*
X17933D1*
Y45868D2*
X18953D1*
X18273Y46355D1*
Y45626D1*
X18954Y44631D2*
X17933D1*
X18954Y45312D1*
X17933D1*
Y33233D2*
X18954D1*
X17933Y33622D1*
X18954Y34011D1*
X17933D1*
X18711Y32191D2*
X18808Y32239D1*
X18906Y32337D1*
X18954Y32433D1*
Y32628D1*
X18906Y32725D1*
X18808Y32822D1*
X18711Y32871D1*
X18565Y32920D1*
X18322D1*
X18177Y32871D1*
X18079Y32822D1*
X17982Y32725D1*
X17933Y32628D1*
Y32433D1*
X17982Y32337D1*
X18079Y32239D1*
X18177Y32191D1*
X18419Y31877D2*
Y31439D1*
X18468Y31294D1*
X18517Y31245D1*
X18614Y31197D1*
X18760D1*
X18856Y31245D1*
X18906Y31294D1*
X18954Y31439D1*
Y31877D1*
X17933D1*
Y30397D2*
X18953D1*
X18273Y30883D1*
Y30154D1*
X18614Y29208D2*
X18468Y29257D1*
X18370Y29354D1*
X18322Y29500D1*
Y29548D1*
X18370Y29694D1*
X18468Y29791D1*
X18614Y29840D1*
X18662D1*
X18808Y29791D1*
X18904Y29694D1*
X18953Y29548D1*
Y29500D1*
X18904Y29354D1*
X18808Y29257D1*
X18614Y29208D1*
X18370D1*
X18127Y29257D1*
X17981Y29354D1*
X17933Y29500D1*
Y29597D1*
X17981Y29743D1*
X18079Y29791D1*
X18710Y28845D2*
X18758D1*
X18856Y28797D1*
X18904Y28748D1*
X18953Y28651D1*
Y28456D1*
X18904Y28360D1*
X18856Y28311D1*
X18758Y28262D1*
X18662D1*
X18564Y28311D1*
X18419Y28408D1*
X17933Y28894D1*
Y28214D1*
X18758Y27900D2*
X18808Y27802D1*
X18953Y27656D1*
X17933D1*
X1767Y94281D2*
X1378Y95302D1*
X989Y94281D1*
X1135Y94622D2*
X1621D1*
X2081Y95302D2*
Y94281D1*
X2421D1*
X2567Y94331D1*
X2665Y94427D1*
X2713Y94525D1*
X2762Y94670D1*
Y94914D1*
X2713Y95060D1*
X2665Y95156D1*
X2567Y95254D1*
X2421Y95302D1*
X2081D1*
X3756Y95156D2*
X3659Y95254D1*
X3513Y95302D1*
X3319D1*
X3173Y95254D1*
X3075Y95156D1*
Y95060D1*
X3125Y94962D1*
X3173Y94914D1*
X3270Y94865D1*
X3562Y94768D1*
X3659Y94719D1*
X3708Y94670D1*
X3756Y94573D1*
Y94427D1*
X3659Y94331D1*
X3513Y94281D1*
X3319D1*
X3173Y94331D1*
X3075Y94427D1*
X4070Y94816D2*
X4506D1*
X4652Y94865D1*
X4702Y94914D1*
X4750Y95010D1*
Y95108D1*
X4702Y95205D1*
X4652Y95254D1*
X4506Y95302D1*
X4070D1*
Y94281D1*
X4410Y94816D2*
X4750Y94281D1*
X6051Y94768D2*
X6489D1*
X6634Y94816D1*
X6684Y94865D1*
X6732Y94962D1*
Y95108D1*
X6684Y95205D1*
X6634Y95254D1*
X6489Y95302D1*
X6051D1*
Y94281D1*
X7046Y95107D2*
X7143Y95156D1*
X7289Y95301D1*
Y94281D1*
X8332Y95060D2*
X8284Y95156D1*
X8186Y95254D1*
X8089Y95302D1*
X7895D1*
X7797Y95254D1*
X7701Y95156D1*
X7651Y95060D1*
X7603Y94914D1*
Y94670D1*
X7651Y94525D1*
X7701Y94427D1*
X7797Y94331D1*
X7895Y94281D1*
X8089D1*
X8186Y94331D1*
X8284Y94427D1*
X8332Y94525D1*
X23816Y1276D2*
D39*
X21508D1*
X15680Y1610D2*
D64*
X15583Y1708D1*
X15437Y1756D1*
X15243D1*
X15097Y1708D1*
X14999Y1610D1*
Y1514D1*
X15048Y1416D1*
X15097Y1368D1*
X15193Y1320D1*
X15485Y1222D1*
X15583Y1174D1*
X15631Y1124D1*
X15680Y1028D1*
Y882D1*
X15583Y785D1*
X15437Y736D1*
X15243D1*
X15097Y785D1*
X14999Y882D1*
X16334Y1756D2*
Y736D1*
X15993Y1756D2*
X16674D1*
X16988Y1270D2*
X17425D1*
X17571Y1320D1*
X17620Y1368D1*
X17668Y1464D1*
Y1562D1*
X17620Y1659D1*
X17571Y1708D1*
X17425Y1756D1*
X16988D1*
Y736D1*
X17328Y1270D2*
X17668Y736D1*
X17982Y1756D2*
Y736D1*
X18296Y1222D2*
X18734D1*
X18879Y1270D1*
X18928Y1320D1*
X18976Y1416D1*
Y1562D1*
X18928Y1659D1*
X18879Y1708D1*
X18734Y1756D1*
X18296D1*
Y736D1*
X19921Y1756D2*
X19290D1*
Y736D1*
X19921D1*
X19290Y1270D2*
X19679D1*
X22601Y25744D2*
D39*
Y23557D1*
X21508Y24649D2*
X23696D1*
M02*
